<svg width="261" height="206" viewBox="0 0 261 206" fill="none" xmlns="http://www.w3.org/2000/svg">
<path opacity="0.1" d="M38.8086 102.08H220.693L217.969 130.788L196.759 160.538L38.8086 102.08Z" fill="#0C5E5A"/>
<rect x="151.25" y="114.377" width="16.8336" height="53.3203" rx="8.41678" fill="white" stroke="#0C5E5A" stroke-width="1.5"/>
<path opacity="0.4" d="M155.08 115.629V159.629C155.08 159.629 156.315 163.014 158.145 164.425C160.145 165.967 164.369 166.253 164.369 166.253C162.209 167.569 160.048 167.809 159.238 167.764C153.507 167.764 151.386 162.341 151.042 159.629V123.87C151.042 117.265 153.734 115.624 155.08 115.629Z" fill="#0C5E5A"/>
<path d="M154.738 115.629L154.738 158.623C154.738 162.837 158.154 166.253 162.368 166.253V166.253H164.027" stroke="#0C5E5A" stroke-width="1.5"/>
<rect x="77.9158" y="114.379" width="16.8336" height="53.3203" rx="8.41678" fill="white" stroke="#0C5E5A" stroke-width="1.5"/>
<path d="M81.8392 115.631L81.8392 158.625C81.8392 162.839 85.2552 166.255 89.4692 166.255V166.255H91.1285" stroke="#0C5E5A" stroke-width="1.5"/>
<path opacity="0.4" d="M81.8392 115.631V159.631C81.8392 159.631 83.0741 163.016 84.9047 164.427C86.9046 165.969 91.1286 166.255 91.1286 166.255C88.968 167.571 86.8076 167.811 85.9975 167.766C80.2664 167.766 78.1456 162.343 77.8016 159.631V123.872C77.8016 117.267 80.4933 115.626 81.8392 115.631Z" fill="#0C5E5A"/>
<rect x="114.583" y="114.379" width="16.8336" height="53.3203" rx="8.41678" fill="white" stroke="#0C5E5A" stroke-width="1.5"/>
<path d="M118.355 115.631L118.355 158.625C118.355 162.839 121.771 166.255 125.985 166.255V166.255H127.644" stroke="#0C5E5A" stroke-width="1.5"/>
<path opacity="0.4" d="M118.234 115.631V159.631C118.234 159.631 119.469 163.016 121.3 164.427C123.3 165.969 127.524 166.255 127.524 166.255C125.363 167.571 123.203 167.811 122.393 167.766C116.661 167.766 114.541 162.343 114.197 159.631V123.872C114.197 117.267 116.888 115.626 118.234 115.631Z" fill="#0C5E5A"/>
<circle cx="80.7742" cy="64.4464" r="38.2228" fill="#8CDAC5"/>
<path d="M81.4407 44.4141L80.3532 45.9303" stroke="#0C5E5A" stroke-width="1.5" stroke-linecap="round"/>
<path d="M90.8939 48.6484L90.4928 50.4123" stroke="#0C5E5A" stroke-width="1.5" stroke-linecap="round"/>
<path d="M80.4139 38.0657C78.8038 39.3287 78.7163 41.4499 80.6395 42.0896C82.2687 42.6315 83.3979 42.2363 84.801 41.1695C84.0549 42.0016 84.2209 43.5414 85.8792 44.3534C87.9066 45.3461 89.4849 44.0357 90.1522 43.3388C89.8339 44.1539 89.6783 45.7538 91.3088 46.5545C93.1738 47.4703 95.6057 46.4465 96.698 45.1668" stroke="#0C5E5A" stroke-width="1.5" stroke-linecap="round" stroke-linejoin="round"/>
<path d="M78.01 49.3311C78.01 49.3311 77.1937 53.5473 82.5934 54.6871C87.993 55.8269 90.3439 54.0873 90.3439 54.0873" stroke="#0C5E5A" stroke-width="1.5" stroke-linecap="round"/>
<path d="M83.3464 55.036C83.1338 56.5894 83.4271 59.7468 86.3011 59.9495C89.1751 60.1522 89.0501 57.1468 88.4768 55.6164" stroke="#0C5E5A" stroke-width="1.5" stroke-linecap="round"/>
<path d="M86.1616 55.6904L86.3383 57.1975" stroke="#0C5E5A" stroke-width="1.5" stroke-linecap="round"/>
<rect x="10.9883" y="79.5859" width="224.023" height="22.3336" rx="7.25" fill="white" stroke="#0C5E5A" stroke-width="1.5"/>
<path opacity="0.1" d="M51.9065 79.3076H226.632C231.371 79.3076 235.214 83.1499 235.214 87.8896H51.9065V79.3076Z" fill="#0C5E5A"/>
<path d="M25.2174 102.67L32.3194 170.345C32.7469 174.417 36.1807 177.51 40.2758 177.51H205.724C209.819 177.51 213.253 174.417 213.68 170.345L220.782 102.67" stroke="#0C5E5A" stroke-width="1.5"/>
<path d="M23.964 72.463C27.3532 67.8092 32.5374 69.8261 36.3485 70.0734C36.3485 70.0734 38.8513 64.4076 43.4809 61.2316C48.1104 58.0557 58.8073 51.9614 58.8073 51.9614L75.5982 61.2316C72.8171 66.0508 72.7305 64.282 65.0443 68.9134C54.2361 75.426 57.1167 79.1139 54.3668 84.0764C49.7714 92.3691 41.6956 90.6201 38.2322 88.709L27.8419 82.9757C24.7926 81.3154 21.395 75.9904 23.964 72.463Z" fill="#8CDAC5"/>
<path d="M55.9983 65.5232C55.9983 65.5232 53.585 60.2316 46.1273 60.8989C39.5782 61.4849 36.8011 70.6029 36.8011 70.6029C34.5765 70.4685 35.5465 70.5508 33.6561 70.3836" stroke="#0C5E5A" stroke-width="1.5" stroke-linecap="round" stroke-linejoin="round"/>
<path d="M35.1428 79.9581C38.5321 75.3043 43.7163 77.3212 47.5273 77.5685C47.5273 77.5685 50.967 71.4654 56.1319 65.9528C61.2967 60.4402 69.9861 59.4566 69.9861 59.4566L86.7771 68.7268C83.996 73.5459 83.9094 71.7771 76.2232 76.4085C67.8729 81.4401 68.2956 86.609 65.5456 91.5715C60.9502 99.8642 52.8745 98.1152 49.4111 96.2041L39.0208 90.4708C35.9715 88.8105 32.5739 83.4855 35.1428 79.9581Z" fill="#8CDAC5"/>
<path d="M73.2531 79.4411C71.4215 79.1645 70.1341 80.6119 69.4265 82.4156C68.7189 84.2193 67.6643 87.5744 67.6643 87.5744" stroke="#0C5E5A" stroke-width="1.5" stroke-linecap="round"/>
<path d="M72.2081 66.8033C72.2081 66.8033 64.0798 62.058 55.9107 66.1285C50.891 68.6297 47.9804 78.1013 47.9804 78.1013C44.2431 76.944 36.3372 75.9751 34.6115 81.3574C33.0755 85.3563 36.1302 88.3392 38.33 89.9674" stroke="#0C5E5A" stroke-width="1.5" stroke-linecap="round" stroke-linejoin="round"/>
<path d="M32.0031 168.448H0.817868" stroke="#0C5E5A" stroke-width="1.5" stroke-linecap="round"/>
<circle cx="216.296" cy="146.608" r="38.2228" fill="#8CDAC5"/>
<path d="M177.996 164.498L208.376 163.79L216.649 184.83C205.418 184.768 184.665 184.774 176.003 185.286C167.342 185.798 164.737 178.699 164.517 175.086L163.856 164.246C163.645 161.076 166.096 155.84 170.081 156.097C175.338 156.436 176.32 161.431 177.996 164.498Z" fill="#8CDAC5"/>
<path d="M200.969 164.459L177.807 165.108C176.821 163.323 177.233 164.113 176.436 162.57" stroke="#0C5E5A" stroke-width="1.5" stroke-linecap="round" stroke-linejoin="round"/>
<path d="M209.282 128.571L208.96 130.409" stroke="#0C5E5A" stroke-width="1.5" stroke-linecap="round"/>
<path d="M220.012 127.168L220.524 129.489" stroke="#0C5E5A" stroke-width="1.5" stroke-linecap="round"/>
<path d="M210.01 135.068C210.01 135.068 211.252 137.502 214.837 137.026C218.422 136.55 219.734 133.778 219.734 133.778" stroke="#0C5E5A" stroke-width="1.5" stroke-linecap="round"/>
<path d="M206.454 122.163C205.541 124.666 205.506 128.287 213.05 127.841C218.103 127.542 221.935 126.117 224.452 124.05" stroke="#0C5E5A" stroke-width="1.5" stroke-linecap="round" stroke-linejoin="round"/>
<path d="M200.469 164.243L230.849 163.535L216.653 185.03C205.421 184.969 207.156 185.03 198.476 185.03C189.8 185.03 187.209 178.444 186.989 174.831L186.989 163.991C186.778 160.821 189.409 155.842 193.403 155.842C198.526 155.841 200.469 159.418 200.469 164.243Z" fill="#8CDAC5"/>
<path d="M230.849 163.536L200.469 164.244C200.469 160.607 200.111 155.842 193.462 155.842C188.06 155.842 186.989 161.2 186.989 164.244L186.989 174.831C186.927 178.088 189.791 184.602 196.594 184.602L216.816 184.602" stroke="#0C5E5A" stroke-width="1.5" stroke-linecap="round"/>
<path d="M246.417 171.99L245.825 139.5C245.334 134.503 241.055 129.958 235.48 130.446C228.947 131.018 227.429 137.825 227.486 141.151C228.341 152.035 230.009 174.562 229.845 177.598C230.031 182.23 232.883 186.307 241.053 189.055C247.759 191.311 256.946 189.51 256.946 183.782C256.946 180.372 253.862 178.289 250.27 176.996C248.099 176.215 246.459 174.297 246.417 171.99Z" fill="#8CDAC5"/>
<path d="M256.414 184.491C255.644 183.307 253.385 181.097 250.854 180.671" stroke="#0C5E5A" stroke-width="1.5" stroke-linecap="round"/>
<path d="M254.556 187.376C253.629 186.073 250.851 183.661 247.652 183.238" stroke="#0C5E5A" stroke-width="1.5" stroke-linecap="round"/>
<path d="M249.527 189.337C249.095 188.131 247.493 186.081 244.026 185.308" stroke="#0C5E5A" stroke-width="1.5" stroke-linecap="round"/>
<path d="M246.489 159.098V171.926C246.489 174.268 248.136 176.25 250.325 177.082C254.278 178.585 257.926 181.091 256.872 184.376C254.941 190.392 246.556 190.351 241.721 189.278C234.006 187.565 230.031 182.242 229.845 177.609C230.009 174.574 229.042 160.607 228.187 149.723" stroke="#0C5E5A" stroke-width="1.5" stroke-linecap="round"/>
<circle cx="144.052" cy="52.3919" r="38.2228" transform="rotate(-30 144.052 52.3919)" fill="#52C5A6"/>
<path d="M124.467 85.1291C116.319 80.4674 106.607 71.9201 105.866 53.5068" stroke="#0C5E5A" stroke-width="1.5" stroke-linecap="round"/>
<path d="M124.478 92.8544L123.77 62.4746L145.265 76.6708C145.204 87.9021 145.265 86.1674 145.265 94.8475C145.265 103.524 138.679 106.114 135.065 106.334L124.226 106.334C121.055 106.545 116.077 103.914 116.077 99.9208C116.076 94.7972 119.653 92.8544 124.478 92.8544Z" fill="#52C5A6"/>
<path d="M124.478 76.5081L124.478 92.8555C120.841 92.8555 116.077 93.2133 116.077 99.8626C116.077 105.264 121.435 106.335 124.479 106.336L135.066 106.335C138.323 106.398 144.837 103.534 144.837 96.7304L144.837 76.5085" stroke="#0C5E5A" stroke-width="1.5" stroke-linecap="round" stroke-linejoin="round"/>
<path d="M163.466 92.8544L164.174 62.4746L142.678 76.6708C142.739 87.9021 142.678 86.1674 142.678 94.8475C142.678 103.524 149.264 106.114 152.878 106.334L163.717 106.334C166.888 106.545 171.866 103.914 171.866 99.9208C171.867 94.7972 168.29 92.8544 163.466 92.8544Z" fill="#52C5A6"/>
<path d="M163.465 77.8835L163.465 92.854C167.102 92.854 171.867 93.2117 171.867 99.8611C171.867 105.263 166.508 106.334 163.464 106.334L152.877 106.334C149.62 106.396 143.106 103.532 143.106 96.7289L143.106 86.9071" stroke="#0C5E5A" stroke-width="1.5" stroke-linecap="round" stroke-linejoin="round"/>
<path d="M132.726 47.6436C132.726 47.6436 133.506 50.1116 137.014 50.2616C140.523 50.4116 142.243 48.0503 142.243 48.0503" stroke="#0C5E5A" stroke-width="1.5" stroke-linecap="round"/>
<path d="M141.892 45.7505C141.795 46.4375 142.38 49.1803 144.46 50.2938" stroke="#0C5E5A" stroke-width="1.5" stroke-linecap="round"/>
<path d="M127.594 36.7412C128.162 38.2758 130.729 41.0744 136.455 39.9921" stroke="#0C5E5A" stroke-width="1.5" stroke-linecap="round"/>
<path d="M148.587 37.8408C146.732 39.4954 143.603 40.6775 139.888 39.271" stroke="#0C5E5A" stroke-width="1.5" stroke-linecap="round"/>
<path d="M132.298 40.5957L132.298 42.4076" stroke="#0C5E5A" stroke-width="1.5" stroke-linecap="round"/>
<path d="M143.576 39.9766L143.621 42.2846" stroke="#0C5E5A" stroke-width="1.5" stroke-linecap="round"/>
<path d="M170.523 33.9043C168.037 34.3824 166.636 36.3829 167.254 38.3655C167.822 40.191 169.744 41.7194 170.343 43.8155C170.942 45.9117 169.295 47.6784 167.254 47.8281" stroke="#0C5E5A" stroke-width="1.5" stroke-linecap="round"/>
<path d="M165.266 32.583C163.048 33.7367 162.24 35.5032 162.663 37.4495C163.154 39.7079 164.637 40.6964 165.067 42.7926C165.498 44.8887 164.314 46.6555 162.846 46.8052" stroke="#0C5E5A" stroke-width="1.5" stroke-linecap="round"/>
<circle cx="6.41675" cy="6.41675" r="5.66675" transform="matrix(-1 8.74228e-08 8.74228e-08 1 181.135 47.0537)" stroke="#0C5E5A" stroke-width="1.5"/>
<rect x="-0.75" y="0.75" width="18.6669" height="22.3336" rx="2.25" transform="matrix(-1 8.74228e-08 8.74228e-08 1 175.051 41.5537)" fill="white" stroke="#0C5E5A" stroke-width="1.5"/>
<path d="M184.062 53.3678C179.928 51.2342 175.728 54.3015 173.844 59.2189C173.4 59.6058 172.729 60.927 173.596 63.1171C174.463 65.3072 177.046 68.2286 178.23 69.4156L175.176 74.1931C177.434 75.4867 182.87 75.685 185.934 71.7446C190.278 66.1597 191.221 63.5018 189.288 59.0075C187.936 55.8639 185.558 54.3315 184.068 53.3717L184.062 53.3678Z" fill="#52C5A6"/>
<path d="M180.075 70.4605C179.618 70.0886 179.186 69.7246 178.774 69.3612M184.062 53.3692C179.928 51.2356 175.728 54.3029 173.844 59.2204C172.817 61.9032 173.936 63.8734 175.506 65.9139C176.487 67.1882 177.539 68.272 178.774 69.3612M175.161 74.4561C176.118 73.1718 178.181 70.3547 178.774 69.3612" stroke="#0C5E5A" stroke-width="1.5" stroke-linecap="round" stroke-linejoin="round"/>
<path d="M177.057 54.798C178.886 54.9866 182.065 56.4237 183.996 59.211" stroke="#0C5E5A" stroke-width="1.5" stroke-linecap="round"/>
<path d="M173.973 58.7893C175.648 59.1179 179.441 60.6697 181.211 64.2483" stroke="#0C5E5A" stroke-width="1.5" stroke-linecap="round"/>
<path d="M108.034 39.7976C107.211 41.6938 106.675 43.7696 106.331 46.3208" stroke="#0C5E5A" stroke-width="1.5" stroke-linecap="round"/>
</svg>
