<svg width="61" height="60" viewBox="0 0 61 60" fill="none" xmlns="http://www.w3.org/2000/svg">
<rect x="1.04545" y="0.545455" width="58.9091" height="58.9091" rx="29.4545" fill="white"/>
<rect x="1.04545" y="0.545455" width="58.9091" height="58.9091" rx="29.4545" stroke="#CCCFD7" stroke-width="1.09091"/>
<path fillRule="evenodd" clip-rule="evenodd" d="M40.7774 29.9955C40.7774 35.8502 36.5047 40.5964 30.65 40.5964C26.4842 40.5964 22.8795 38.1935 21.1466 34.698L24.5455 31.8404C25.3368 34.4619 27.7705 36.3709 30.65 36.3709C34.1711 36.3709 36.552 33.5165 36.552 29.9954C36.552 29.3183 36.4465 28.6659 36.251 28.0537H40.6C40.7165 28.6832 40.7774 29.3322 40.7774 29.9955Z" fill="#34A853"/>
<path fillRule="evenodd" clip-rule="evenodd" d="M40.7774 29.9954C40.7774 33.1804 39.5131 36.0369 37.4174 37.9804L34.08 35.2707C35.0663 34.5395 35.7993 33.489 36.2014 32.2556H30.5V28.0644H36.2544C36.2533 28.0608 36.2521 28.0573 36.251 28.0537H40.6C40.7165 28.683 40.7774 29.332 40.7774 29.9954Z" fill="#4285F4"/>
<path fillRule="evenodd" clip-rule="evenodd" d="M24.5458 31.8425C24.3698 31.2588 24.2751 30.6397 24.2751 29.9986C24.2751 26.4776 27.1293 23.6233 30.6502 23.623C27.8796 23.623 25.5213 25.3901 24.642 27.859L21.1941 25.2028C20.4623 26.6429 20.0497 28.2727 20.0497 29.9987C20.0497 31.6872 20.4445 33.2835 21.1467 34.7003L24.5458 31.8425Z" fill="#FBBC04"/>
<path fillRule="evenodd" clip-rule="evenodd" d="M21.1932 25.2028L24.642 27.8597C25.5213 25.3908 27.8791 23.6237 30.6496 23.6237C32.1853 23.6237 33.5941 24.1671 34.6946 25.0712L37.6338 22.024C35.7685 20.3894 33.3248 19.3984 30.6496 19.3984C26.5211 19.3984 22.9438 21.7581 21.1932 25.2028Z" fill="#E94235"/>
</svg>
