<svg width="72" height="72" viewBox="0 0 72 72" fill="none" xmlns="http://www.w3.org/2000/svg">
<g clipPath="url(#clip0_201_3437)">
<circle cx="41.8588" cy="27.1627" r="25.4287" fill="#52C5A6"/>
<path d="M42.5178 62.0542C34.5782 61.8166 30.9226 49.7144 30.0873 43.6931L43.0163 41.8995L45.5437 48.244L58.4727 46.4504C63.6443 45.733 64.374 49.5373 64.6778 51.7269C65.1334 55.0113 66.2457 62.1101 62.367 62.6482C59.5518 63.0387 57.063 60.0364 56.8352 58.3942C55.3709 59.7132 50.4575 62.2918 42.5178 62.0542Z" fill="#52C5A6"/>
<path d="M34.3527 61.1829C26.521 59.8566 24.5631 47.3669 24.5631 41.2878H37.616L39.2476 47.9195L34.3527 61.1829Z" fill="#52C5A6"/>
<path d="M32.0579 58.3877L41.7555 40.649H57.9181C54.1468 47.0994 45.9578 61.2904 43.3717 66.4508C40.7857 71.6112 35.8292 70.7511 33.6742 69.676L27.2091 66.4508C25.3124 65.5178 23.1112 62.3644 24.5849 60.1539C26.529 57.2375 29.7334 58.3335 32.0579 58.3877Z" fill="#52C5A6"/>
<path d="M47.1698 60.0245C50.0436 54.9952 49.5504 55.4796 53.3216 49.0292" stroke="#0C5E5A" stroke-width="0.972973" stroke-linecap="round" stroke-linejoin="round"/>
<path d="M39.6771 45.1395L32.3467 58.6999C30.9901 58.6743 31.5822 58.6999 30.4281 58.6459" stroke="#0C5E5A" stroke-width="0.972973" stroke-linecap="round" stroke-linejoin="round"/>
<path fillRule="evenodd" clipRule="evenodd" d="M26.9093 29.9963C28.53 30.7879 30.3019 30.9184 31.9193 30.493C32.9129 30.2317 34.0268 30.5311 34.8639 31.1267C35.077 31.2783 35.3053 31.4145 35.548 31.533C37.9404 32.7015 40.8271 31.7094 41.9957 29.3169C42.4451 28.3967 43.5681 27.6922 44.4881 28.1421L58.5688 35.0285C59.5342 35.5006 59.9395 36.6699 59.4064 37.6031C55.7605 43.986 49.9055 48.8495 42.911 51.2495C35.3009 53.8607 26.9652 53.3418 19.7377 49.8071C12.5102 46.2723 6.98283 40.0112 4.37163 32.4012C1.97164 25.4066 2.21583 17.7991 5.01558 11.0024C5.42492 10.0087 6.59666 9.61067 7.5621 10.0828L22.8576 17.5634C23.8353 18.0415 24.0629 19.3468 23.5852 20.3247C21.8324 23.9134 23.3206 28.2435 26.9093 29.9963Z" fill="#FFE377"/>
<path d="M56.0385 34.3648C53.0779 40.4184 47.8337 45.048 41.4597 47.2351C35.0857 49.4221 28.104 48.9876 22.0504 46.027C15.9968 43.0663 11.3673 37.8222 9.1802 31.4482C6.99313 25.0742 7.4277 18.0925 10.3883 12.0389" stroke="#F1B00A" stroke-width="0.972973" stroke-linecap="round"/>
<path d="M20.5797 37.0666C20.0923 37.7904 19.3672 38.155 18.96 37.8808C18.5529 37.6067 18.6179 36.7977 19.1052 36.0739C19.5926 35.3501 20.5383 34.6579 20.9455 34.932C21.3526 35.2061 21.067 36.3428 20.5797 37.0666Z" fill="#F1B00A"/>
<path d="M29.5523 40.6407C29.3946 41.4989 28.8755 42.1228 28.3928 42.0342C27.91 41.9455 27.6464 41.1779 27.804 40.3197C27.9617 39.4614 28.5521 38.4491 29.0349 38.5377C29.5176 38.6264 29.7099 39.7825 29.5523 40.6407Z" fill="#F1B00A"/>
<path d="M13.4504 20.9294C12.5851 20.8169 11.9349 20.3312 11.9981 19.8444C12.0614 19.3577 12.8142 19.0543 13.6795 19.1668C14.5448 19.2792 15.5867 19.8159 15.5234 20.3026C15.4601 20.7894 14.3157 21.0419 13.4504 20.9294Z" fill="#F1B00A"/>
<path d="M44.7376 37.9245C45.2678 38.6175 46.0137 38.9375 46.4035 38.6392C46.7933 38.3409 46.6795 37.5374 46.1492 36.8444C45.619 36.1514 44.6331 35.5177 44.2433 35.8159C43.8535 36.1142 44.2073 37.2315 44.7376 37.9245Z" fill="#F1B00A"/>
<path d="M15.4243 29.6236C14.576 29.8281 13.7951 29.607 13.6801 29.1298C13.5651 28.6526 14.1596 28.1001 15.0079 27.8956C15.8562 27.6912 17.0211 27.8197 17.1361 28.2969C17.2511 28.7741 16.2726 29.4192 15.4243 29.6236Z" fill="#F1B00A"/>
<path d="M36.3851 40.5643C36.6325 41.4011 37.2145 41.9666 37.6852 41.8275C38.1559 41.6884 38.337 40.8973 38.0897 40.0605C37.8424 39.2237 37.1483 38.2793 36.6776 38.4184C36.2069 38.5575 36.1378 39.7275 36.3851 40.5643Z" fill="#F1B00A"/>
<path d="M51.0283 36.6301C53.1802 33.7324 53.8417 28.7816 53.6864 27.7296L64.3342 27.7296C64.3342 38.5022 61.5776 43.9864 53.6864 50.4601C49.856 53.6024 42.3945 55.7714 39.6722 55.5028C36.5922 55.1989 35.3561 51.9669 36.0831 48.54C36.4777 46.6794 38.2492 46.0688 39.0323 45.041C39.1329 44.8455 39.2362 44.6213 39.3368 44.3888C39.5696 43.5526 39.456 42.5763 40.0665 42.4902C45.9266 41.6628 48.3384 40.2521 51.0283 36.6301Z" fill="#52C5A6"/>
<path d="M44.0147 44.858C42.4575 45.0277 41.0734 45.1446 39.432 45.4037M64.0201 24.6027C65.7165 31.5838 64.8547 36.5242 63.5119 39.9011C61.5408 44.858 58.4062 46.8889 53.5934 50.8372C48.5897 54.9421 42.7357 56.0601 40.071 55.4415C37.056 54.7417 35.3561 51.967 36.083 48.54C36.4796 46.6704 37.6021 45.6926 39.432 45.4037M39.432 45.4037C38.9207 44.6241 38.8132 42.9283 41.0734 42.3976C42.4944 42.2113 45.3926 41.886 47.2933 40.7902C47.9977 40.2553 49.7855 38.7114 51.3023 36.8153M51.3023 36.8153C51.829 36.1833 53.5776 34.9351 56.3584 34.9983M51.3023 36.8153C52.7518 34.5618 52.756 33.384 52.352 29.8819" stroke="#0C5E5A" stroke-width="0.972973" stroke-linecap="round"/>
<path d="M36.2772 52.1714C37.3668 52.7277 39.6619 53.0753 41.7482 52.2173" stroke="#0C5E5A" stroke-width="0.972973" stroke-linecap="round"/>
<path d="M35.9987 48.8272C37.0104 49.2792 39.5635 49.7319 41.7507 48.8272" stroke="#0C5E5A" stroke-width="0.972973" stroke-linecap="round"/>
<path d="M7.16422 38.5267C9.12992 36.1361 12.5033 36.9066 14.9469 39.4168C15.3199 39.5366 16.0772 40.1677 16.1233 41.7339C16.1694 43.3002 15.3582 45.7647 14.9469 46.8012L18.0687 48.9185C17.0291 50.3025 13.7591 51.8524 10.8505 50.2497C6.72806 47.9782 5.4529 46.6018 5.45294 43.347C5.45297 41.0704 6.50352 39.5088 7.16155 38.5307L7.16422 38.5267Z" fill="#52C5A6"/>
<path d="M14.0934 47.924C14.2748 47.5767 14.4434 47.2405 14.5996 46.9101M7.16415 38.5267C9.12987 36.1362 12.5032 36.9066 14.9469 39.4169C16.2801 40.7863 16.1137 42.2848 15.6905 43.9445C15.4262 44.981 15.068 45.9199 14.5996 46.9101M18.1466 49.0744C17.2241 48.541 15.2232 47.3614 14.5996 46.9101" stroke="#0C5E5A" stroke-width="0.972973" stroke-linecap="round" stroke-linejoin="round"/>
<path d="M11.8211 37.5583C10.7527 38.1544 9.18739 39.8684 8.73992 42.0794" stroke="#0C5E5A" stroke-width="0.972973" stroke-linecap="round"/>
<path d="M14.755 39.1871C13.8176 39.8282 11.9074 41.7736 11.7661 44.426" stroke="#0C5E5A" stroke-width="0.972973" stroke-linecap="round"/>
<path d="M66.7185 51.0639C67.5251 51.872 69.034 53.9247 68.4014 56.6936" stroke="#52C5A6" stroke-linecap="round" stroke-linejoin="round"/>
<path d="M69.2388 51.2238C69.8141 51.659 70.7517 53.1144 70.709 54.7622" stroke="#52C5A6" stroke-linecap="round" stroke-linejoin="round"/>
<path d="M37.1929 15.1624L36.979 16.3851" stroke="#0C5E5A" stroke-width="0.972973" stroke-linecap="round"/>
<path d="M44.3311 14.2294L44.6718 15.7737" stroke="#0C5E5A" stroke-width="0.972973" stroke-linecap="round"/>
<path d="M37.6774 19.4854C37.6774 19.4854 38.5036 21.1042 40.8886 20.7877C43.2735 20.4711 44.1464 18.6267 44.1464 18.6267" stroke="#0C5E5A" stroke-width="0.972973" stroke-linecap="round"/>
<path d="M35.3113 10.8996C34.704 12.5648 34.681 14.9736 39.6996 14.6771C43.0612 14.4784 45.6107 13.5302 47.2852 12.1548" stroke="#0C5E5A" stroke-linecap="round" stroke-linejoin="round"/>
</g>
<defs>
<clipPath id="clip0_201_3437">
<rect width="72" height="72" fill="white"/>
</clipPath>
</defs>
</svg>
