<svg width="335" height="101" viewBox="0 0 335 101" fill="none" xmlns="http://www.w3.org/2000/svg">
<rect width="335" height="101" rx="12" fill="white"/>
<circle cx="39" cy="39" r="19" fill="#3CAA8D"/>
<path fill-rule="evenodd" clip-rule="evenodd" d="M35.3672 30.4966C35.8283 30.4966 36.2022 30.8704 36.2022 31.3316V32.5034H42.0322V31.3316C42.0322 30.8704 42.406 30.4966 42.8672 30.4966C43.3283 30.4966 43.7022 30.8704 43.7022 31.3316V32.5034H44.83C45.7523 32.5034 46.5 33.2511 46.5 34.1734V36.3237H31.5V34.1734C31.5 33.2511 32.2477 32.5034 33.17 32.5034H34.5322V31.3316C34.5322 30.8704 34.906 30.4966 35.3672 30.4966ZM31.5 37.8237H46.5V45.8334C46.5 46.7557 45.7523 47.5034 44.83 47.5034H33.17C32.2477 47.5034 31.5 46.7557 31.5 45.8334V37.8237ZM35.25 42.6987C36.0267 42.6987 36.6563 42.0691 36.6563 41.2925C36.6563 40.5158 36.0267 39.8862 35.25 39.8862C34.4733 39.8862 33.8438 40.5158 33.8438 41.2925C33.8438 42.0691 34.4733 42.6987 35.25 42.6987Z" fill="white"/>
<path d="M78.032 29.68V30.736H68.36V29.68H72.488V27.232H73.784V29.68H78.032ZM68.624 26.416C70.856 26.056 72.428 24.46 72.44 22.864V22.096H73.832V22.864C73.82 24.472 75.428 26.056 77.648 26.416L77.096 27.496C75.308 27.148 73.844 26.128 73.136 24.748C72.428 26.116 70.976 27.16 69.2 27.496L68.624 26.416ZM87.5391 21.448V32.056H86.2191V21.448H87.5391ZM79.2831 29.56V22.312H80.5791V24.952H83.1471V22.312H84.4431V29.56H79.2831ZM80.5791 28.48H83.1471V25.984H80.5791V28.48ZM97.9342 21.448V32.032H96.6142V21.448H97.9342ZM89.1742 29.128C91.9342 27.808 93.2182 26.02 93.4582 23.608H89.7022V22.576H94.7902C94.7782 25.732 93.5542 28.408 89.8462 30.16L89.1742 29.128ZM107.825 21.472V24.784H109.313V25.864H107.825V29.368H106.505V21.472H107.825ZM99.4733 23.68V22.624H101.969V21.448H103.265V22.624H105.761V23.68H99.4733ZM100.025 26.152C100.013 24.916 101.081 24.112 102.617 24.112C104.141 24.112 105.197 24.916 105.209 26.152C105.197 27.352 104.141 28.144 102.617 28.144C101.081 28.144 100.013 27.352 100.025 26.152ZM101.033 31.84V28.744H102.329V30.784H108.233V31.84H101.033ZM101.273 26.152C101.273 26.776 101.813 27.136 102.617 27.136C103.421 27.136 103.961 26.776 103.961 26.152C103.961 25.492 103.421 25.12 102.617 25.12C101.813 25.12 101.273 25.492 101.273 26.152Z" fill="#3CAA8D"/>
<path d="M72.9 46.676C72.9 48.37 74.048 49.924 75.952 50.54L75.28 51.576C73.866 51.072 72.802 50.078 72.256 48.79C71.71 50.162 70.632 51.254 69.176 51.772L68.504 50.764C70.422 50.092 71.57 48.426 71.584 46.676V45.5H72.9V46.676ZM70.324 53.9V52.864H78.612V57.148H77.324V53.9H70.324ZM77.324 52.276V44.912H78.612V52.276H77.324ZM91.1316 44.912V57.148H89.8996V50.876H88.4156V56.56H87.2116V45.136H88.4156V49.784H89.8996V44.912H91.1316ZM80.3796 53.704C82.1716 52.696 83.0116 50.582 83.0116 48.16V47.376H80.7156V46.312H86.3996V47.376H84.2716V48.16C84.2716 50.358 85.0976 52.346 86.8756 53.256L86.1196 54.264C84.9156 53.606 84.1036 52.472 83.6696 51.058C83.2496 52.668 82.4376 53.956 81.1916 54.684L80.3796 53.704ZM103.875 54.6V55.692H92.6472V54.6H95.6992V52.444H94.0192V48.552H101.215V46.844H93.9912V45.78H102.503V49.616H95.3072V51.38H102.783V52.444H100.907V54.6H103.875ZM96.9592 54.6H99.6472V52.444H96.9592V54.6ZM108.751 45.78C110.683 45.78 112.069 46.984 112.083 48.692C112.069 50.428 110.683 51.618 108.751 51.632C106.819 51.618 105.405 50.428 105.419 48.692C105.405 46.984 106.819 45.78 108.751 45.78ZM104.803 53.452C107.043 53.466 110.137 53.452 112.811 53.06L112.923 54.012C110.137 54.53 107.169 54.544 104.971 54.544L104.803 53.452ZM106.679 48.692C106.679 49.784 107.547 50.498 108.751 50.484C109.927 50.498 110.809 49.784 110.823 48.692C110.809 47.628 109.927 46.914 108.751 46.9C107.547 46.914 106.679 47.628 106.679 48.692ZM113.595 57.176V44.912H114.883V57.176H113.595ZM131.492 54.544V55.608H120.264V54.544H125.164V51.632H126.452V54.544H131.492ZM120.656 50.764C123.008 50.386 125.108 48.566 125.136 46.62V45.696H126.48V46.62C126.494 48.566 128.622 50.386 130.988 50.764L130.428 51.856C128.44 51.45 126.62 50.218 125.808 48.538C124.996 50.218 123.19 51.464 121.216 51.856L120.656 50.764ZM142.528 44.912V57.176H141.212V44.912H142.528ZM133.036 54.264V45.92H134.352V49.084H137.656V45.92H138.916V54.264H133.036ZM134.352 53.172H137.656V50.092H134.352V53.172ZM154.656 44.912V57.148H153.34V44.912H154.656ZM144.576 53.872C147.852 52.332 149.434 50.12 149.686 47.264H145.192V46.228H151.016C151.002 49.812 149.476 52.92 145.276 54.936L144.576 53.872ZM166.195 44.912V48.86H167.959V49.952H166.195V54.096H164.907V44.912H166.195ZM156.591 47.404V46.34H159.587V44.912H160.875V46.34H163.871V47.404H156.591ZM157.263 50.316C157.249 48.902 158.453 47.978 160.231 47.992C161.995 47.978 163.199 48.902 163.199 50.316C163.199 51.688 161.995 52.598 160.231 52.584C158.453 52.598 157.249 51.688 157.263 50.316ZM158.439 56.896V53.368H159.727V55.86H166.727V56.896H158.439ZM158.495 50.316C158.495 51.1 159.195 51.59 160.231 51.576C161.267 51.59 161.967 51.1 161.967 50.316C161.967 49.49 161.267 48.986 160.231 49C159.195 48.986 158.495 49.49 158.495 50.316ZM178.827 44.912V57.176H177.511V44.912H178.827ZM169.083 50.12C169.083 47.502 170.413 45.836 172.247 45.836C174.081 45.836 175.425 47.502 175.411 50.12C175.425 52.766 174.081 54.432 172.247 54.432C170.413 54.432 169.083 52.766 169.083 50.12ZM170.343 50.12C170.343 52.066 171.127 53.27 172.247 53.256C173.381 53.27 174.165 52.066 174.151 50.12C174.165 48.202 173.381 46.998 172.247 46.984C171.127 46.998 170.343 48.202 170.343 50.12ZM194.4 44.912V51.1H193.112V48.608H190.704C190.438 49.98 189.206 50.904 187.568 50.904C185.72 50.904 184.362 49.742 184.376 48.076C184.362 46.452 185.72 45.318 187.568 45.304C189.192 45.318 190.438 46.214 190.704 47.544H193.112V44.912H194.4ZM185.608 48.076C185.594 49.14 186.42 49.84 187.568 49.84C188.688 49.84 189.514 49.14 189.528 48.076C189.514 47.068 188.688 46.368 187.568 46.368C186.42 46.368 185.594 47.068 185.608 48.076ZM186.364 52.752V51.744H194.4V54.796H187.68V55.972H194.82V57.008H186.392V53.816H193.112V52.752H186.364ZM202.496 46.116V54.096H196.756V46.116H202.496ZM198.016 53.032H201.18V47.152H198.016V53.032ZM204.54 57.148V44.912H205.828V49.7H207.788V50.82H205.828V57.148H204.54ZM221.43 44.912V47.656H223.222V48.72H221.43V51.828H220.142V44.912H221.43ZM212.358 50.988V45.528H213.674V49.924C215.326 49.896 217.048 49.756 218.938 49.392L219.106 50.456C217.034 50.862 215.172 50.988 213.366 50.988H212.358ZM213.59 57.008V52.472H221.43V57.008H213.59ZM214.85 55.972H220.17V53.48H214.85V55.972ZM228.405 48.524C228.405 50.568 229.749 52.682 231.653 53.48L230.925 54.516C229.483 53.872 228.349 52.528 227.775 50.904C227.201 52.64 226.053 54.138 224.625 54.824L223.869 53.788C225.717 52.934 227.089 50.624 227.089 48.524V47.208H224.289V46.144H231.205V47.208H228.405V48.524ZM232.745 57.148V44.912H234.061V57.148H232.745ZM242.831 45.584C244.679 45.57 246.037 46.746 246.051 48.412C246.037 50.078 244.679 51.254 242.831 51.268C240.983 51.254 239.597 50.078 239.611 48.412C239.597 46.746 240.983 45.57 242.831 45.584ZM240.647 56.84V52.276H241.907V55.762C242.635 55.72 243.461 55.622 244.231 55.356L244.455 56.392C243.293 56.784 242.201 56.826 241.263 56.84H240.647ZM240.871 48.412C240.857 49.462 241.711 50.19 242.831 50.204C243.937 50.19 244.777 49.462 244.791 48.412C244.777 47.376 243.937 46.648 242.831 46.648C241.711 46.648 240.857 47.376 240.871 48.412ZM244.007 53.312V52.332H246.471V51.324H247.759V52.332H250.195V53.312H244.007ZM244.791 55.412C244.777 54.362 245.729 53.676 247.087 53.676C248.459 53.676 249.411 54.362 249.411 55.412C249.411 56.476 248.459 57.148 247.087 57.148C245.729 57.148 244.777 56.476 244.791 55.412ZM245.939 55.412C245.939 55.916 246.429 56.224 247.087 56.224C247.759 56.224 248.249 55.916 248.235 55.412C248.249 54.922 247.759 54.614 247.087 54.6C246.429 54.614 245.939 54.922 245.939 55.412ZM247.759 51.016V44.912H249.047V47.6H250.811V48.664H249.047V51.016H247.759ZM254.958 45.612C256.834 45.612 258.22 46.788 258.234 48.524C258.22 50.232 256.834 51.422 254.958 51.436C253.082 51.422 251.696 50.232 251.71 48.524C251.696 46.788 253.082 45.612 254.958 45.612ZM251.962 56.056C253.516 55.482 254.398 54.18 254.398 52.976V52.388H255.63V52.976C255.63 54.054 256.148 55.16 257.254 55.846C258.388 55.104 258.92 53.914 258.934 52.976V52.388H260.194V52.976C260.194 54.278 261.034 55.51 262.63 56.056L261.986 57.008C260.782 56.574 259.97 55.748 259.55 54.74C259.158 55.734 258.43 56.658 257.282 57.12C256.106 56.658 255.378 55.79 255 54.782C254.552 55.762 253.754 56.588 252.606 57.008L251.962 56.056ZM252.97 48.524C252.97 49.616 253.81 50.33 254.958 50.344C256.106 50.33 256.96 49.616 256.974 48.524C256.96 47.446 256.106 46.704 254.958 46.704C253.81 46.704 252.97 47.446 252.97 48.524ZM259.858 51.856V44.912H261.146V47.768H262.91V48.832H261.146V51.856H259.858ZM266.946 45.836C268.612 45.836 269.816 47.25 269.998 49.504H272.546V44.912H273.834V57.176H272.546V50.568H270.012C269.872 52.948 268.654 54.432 266.946 54.432C265.112 54.432 263.824 52.766 263.838 50.12C263.824 47.502 265.112 45.836 266.946 45.836ZM265.07 50.12C265.07 52.066 265.826 53.27 266.946 53.256C268.052 53.27 268.808 52.066 268.822 50.12C268.808 48.202 268.052 46.998 266.946 46.984C265.826 46.998 265.07 48.202 265.07 50.12ZM286.942 54.544V55.636H275.714V54.544H278.402V51.352C277.394 50.806 276.778 49.924 276.778 48.832C276.778 46.9 278.668 45.626 281.286 45.612C283.932 45.626 285.822 46.9 285.822 48.832C285.822 49.896 285.234 50.764 284.254 51.324V54.544H286.942ZM278.038 48.832C278.038 50.134 279.368 50.988 281.286 50.988C283.204 50.988 284.562 50.134 284.562 48.832C284.562 47.502 283.204 46.662 281.286 46.676C279.368 46.662 278.038 47.502 278.038 48.832ZM279.69 54.544H282.938V51.814C282.434 51.94 281.874 51.996 281.286 51.996C280.712 51.996 280.18 51.94 279.69 51.828V54.544ZM289.213 56.084C288.681 56.098 288.233 55.664 288.233 55.132C288.233 54.586 288.681 54.152 289.213 54.152C289.731 54.152 290.179 54.586 290.165 55.132C290.179 55.664 289.731 56.098 289.213 56.084Z" fill="#4E5464"/>
<path d="M71.84 78.12C69.788 78.12 68.576 76.536 68.576 73.752C68.576 70.992 69.8 69.396 71.84 69.408C73.868 69.396 75.092 70.992 75.104 73.752C75.092 76.536 73.868 78.12 71.84 78.12ZM70.112 73.752C70.112 75.792 70.772 76.836 71.84 76.824C72.896 76.836 73.556 75.792 73.544 73.752C73.556 71.736 72.896 70.668 71.84 70.656C70.772 70.668 70.112 71.736 70.112 73.752ZM79.8043 69.504V78H78.2683V70.992H78.2203L76.2283 72.264V70.872L78.3403 69.504H79.8043ZM90.3884 68.472V74.64H89.0684V74.208H87.1004V73.416H89.0684V68.472H90.3884ZM81.4844 72.288C83.5364 72.288 86.0924 72.264 88.3724 72.048L88.4444 72.864C87.4724 72.996 86.4764 73.08 85.4924 73.128V74.664H84.1964V73.176C83.2964 73.2 82.4204 73.2 81.6284 73.2L81.4844 72.288ZM82.2524 70.224C82.2404 69.252 83.2964 68.628 84.9164 68.616C86.4884 68.628 87.5564 69.252 87.5564 70.224C87.5564 71.208 86.4884 71.808 84.9164 71.808C83.2964 71.808 82.2404 71.208 82.2524 70.224ZM83.0444 75.864V74.976H90.3884V77.352H84.3644V78.024H90.6764V78.96H83.0684V76.488H89.0924V75.864H83.0444ZM83.4764 70.224C83.4644 70.668 84.0164 70.932 84.9164 70.944C85.7804 70.932 86.3444 70.668 86.3324 70.224C86.3444 69.768 85.7804 69.492 84.9164 69.48C84.0164 69.492 83.4644 69.768 83.4764 70.224ZM98.5309 69.504V78H96.9949V70.992H96.9469L94.9549 72.264V70.872L97.0669 69.504H98.5309ZM103.595 69.408C105.251 69.408 106.895 70.404 106.907 73.488C106.907 76.428 105.575 78.12 103.499 78.12C101.855 78.12 100.727 77.1 100.547 75.696H102.059C102.215 76.368 102.731 76.8 103.499 76.8C104.723 76.8 105.419 75.708 105.419 73.896H105.323C104.903 74.628 104.087 75.06 103.163 75.072C101.639 75.06 100.463 73.908 100.475 72.312C100.463 70.644 101.711 69.384 103.595 69.408ZM101.939 72.264C101.951 73.176 102.623 73.896 103.571 73.896C104.519 73.896 105.251 73.14 105.251 72.264C105.239 71.388 104.555 70.632 103.595 70.632C102.647 70.632 101.939 71.364 101.939 72.264ZM110.84 68.784C112.436 68.796 113.636 69.78 113.648 71.184C113.636 72.588 112.436 73.572 110.84 73.56C109.22 73.572 108.02 72.588 108.032 71.184C108.02 69.78 109.22 68.796 110.84 68.784ZM109.28 71.184C109.28 72 109.94 72.516 110.84 72.504C111.716 72.516 112.376 72 112.376 71.184C112.376 70.38 111.716 69.864 110.84 69.864C109.94 69.864 109.28 70.38 109.28 71.184ZM109.616 75.288V74.256H116.648V77.04H110.912V77.88H116.96V78.912H109.64V76.08H115.352V75.288H109.616ZM115.352 73.8V68.448H116.648V73.8H115.352Z" fill="#B5B9C5"/>
</svg>
