<svg width="144" height="28" viewBox="0 0 144 28" fill="none" xmlns="http://www.w3.org/2000/svg">
<path d="M135.779 5.51636C135.499 7.00969 135.154 8.21369 134.743 9.12836C135.807 8.08302 137.263 7.56036 139.111 7.56036C140.418 7.56036 141.417 7.85902 142.107 8.45636C142.798 9.03502 143.143 9.91236 143.143 11.0884C143.143 12.2644 142.798 13.263 142.107 14.0844C141.435 14.9057 140.493 15.4844 139.279 15.8204L140.399 18.7324C140.866 19.9644 141.491 20.6177 142.275 20.6924C142.051 21.4204 141.613 21.9804 140.959 22.3724C140.325 22.7644 139.606 22.9604 138.803 22.9604C136.115 22.9604 134.631 20.5804 134.351 15.8204C135.285 15.559 136.078 14.999 136.731 14.1404C137.403 13.2817 137.739 12.3297 137.739 11.2844C137.739 10.239 137.385 9.71636 136.675 9.71636C135.518 9.71636 134.669 11.107 134.127 13.8884L132.475 22.4004L126.875 22.9604L130.823 2.80036L136.423 2.24036L135.779 5.51636Z" fill="#363A45"/>
<path d="M117.395 10.3037C118.347 8.47436 120.055 7.55969 122.519 7.55969C125.207 7.55969 126.551 8.65169 126.551 10.8357C126.551 11.3957 126.476 12.0584 126.327 12.8237C126.178 13.5704 125.972 14.4757 125.711 15.5397C125.468 16.5104 125.291 17.285 125.179 17.8637C125.067 18.4237 125.011 18.8997 125.011 19.2917C125.011 20.2437 125.45 20.7757 126.327 20.8877C126.122 21.5597 125.674 22.073 124.983 22.4277C124.292 22.7824 123.536 22.9597 122.715 22.9597C121.744 22.9597 120.96 22.717 120.363 22.2317C119.784 21.7277 119.495 21.009 119.495 20.0757C119.495 19.609 119.551 19.0584 119.663 18.4237C119.794 17.789 119.999 16.8744 120.279 15.6797C120.54 14.5784 120.746 13.6637 120.895 12.9357C121.044 12.2077 121.119 11.5917 121.119 11.0877C121.119 10.173 120.792 9.71569 120.139 9.71569C119.448 9.71569 118.907 10.117 118.515 10.9197C118.142 11.7037 117.834 12.693 117.591 13.8877L115.939 22.3997L110.339 22.9597L113.251 8.11969L117.843 7.55969L117.395 10.3037Z" fill="#363A45"/>
<path d="M108.17 1.40002C109.048 1.40002 109.757 1.59602 110.298 1.98803C110.84 2.38003 111.11 2.93069 111.11 3.64003C111.11 4.34936 110.821 4.90003 110.242 5.29203C109.682 5.68403 108.954 5.88003 108.058 5.88003C107.162 5.88003 106.434 5.69336 105.874 5.32003C105.333 4.92803 105.062 4.38669 105.062 3.69603C105.062 2.96803 105.352 2.40803 105.93 2.01603C106.528 1.60536 107.274 1.40002 108.17 1.40002ZM108.002 18.228C107.909 18.732 107.862 19.124 107.862 19.404C107.862 19.796 107.974 20.132 108.198 20.412C108.422 20.692 108.749 20.8507 109.178 20.888C108.973 21.56 108.525 22.0734 107.834 22.428C107.144 22.7827 106.388 22.96 105.566 22.96C104.596 22.96 103.812 22.7174 103.214 22.232C102.636 21.728 102.346 21.0094 102.346 20.076C102.346 19.1614 102.654 17.192 103.27 14.168L103.382 13.608L104.446 8.12002L110.074 7.56003L108.002 18.228Z" fill="#363A45"/>
<path d="M92.6199 3.91931H98.7239L95.9799 19.0393H98.4719C99.7226 19.0393 100.647 18.946 101.244 18.7593C101.375 18.9273 101.468 19.1606 101.524 19.4593C101.599 19.758 101.636 20.038 101.636 20.2993C101.636 21.102 101.319 21.6526 100.684 21.9513C100.049 22.25 99.2093 22.3993 98.1639 22.3993H89.2319L92.6199 3.91931Z" fill="#363A45"/>
<path d="M80.0272 7.55969C83.1445 7.55969 84.7032 8.69836 84.7032 10.9757C84.7032 12.3944 84.0965 13.5237 82.8832 14.3637C81.6885 15.185 79.8965 15.661 77.5072 15.7917C77.2085 15.8104 76.7325 15.8197 76.0792 15.8197C76.0232 16.2117 75.9952 16.6037 75.9952 16.9957C75.9952 17.817 76.1725 18.433 76.5272 18.8437C76.8819 19.2357 77.4699 19.4317 78.2912 19.4317C79.0379 19.4317 79.7659 19.273 80.4752 18.9557C81.2032 18.6384 81.7445 18.209 82.0992 17.6677C82.5659 17.9477 82.7992 18.3957 82.7992 19.0117C82.7992 19.7957 82.5099 20.4957 81.9312 21.1117C81.3525 21.709 80.5779 22.1664 79.6072 22.4837C78.6552 22.801 77.6472 22.9597 76.5832 22.9597C74.7165 22.9597 73.2699 22.4557 72.2432 21.4477C71.2352 20.421 70.7312 18.881 70.7312 16.8277C70.7312 15.1477 71.0765 13.6077 71.7672 12.2077C72.4579 10.8077 73.4939 9.68769 74.8752 8.84769C76.2752 7.98903 77.9925 7.55969 80.0272 7.55969ZM79.4112 8.98769C78.7392 8.98769 78.1232 9.45436 77.5632 10.3877C77.0219 11.3024 76.5925 12.7117 76.2752 14.6157C77.5445 14.6157 78.5525 14.233 79.2992 13.4677C80.0459 12.7024 80.4192 11.713 80.4192 10.4997C80.4192 10.0144 80.3445 9.64103 80.1952 9.37969C80.0459 9.11836 79.7845 8.98769 79.4112 8.98769Z" fill="#363A45"/>
<path d="M68.375 18.5637C67.9457 20.7664 67.4137 22.5397 66.779 23.8837C66.1444 25.2277 65.2391 26.245 64.0631 26.9357C62.8871 27.645 61.3191 27.9997 59.3591 27.9997C57.6977 27.9997 56.2604 27.7477 55.0471 27.2437C53.8337 26.7584 53.2271 25.937 53.2271 24.7797C53.2271 23.977 53.5257 23.3424 54.123 22.8757C54.7017 22.409 55.411 22.1757 56.251 22.1757C56.8484 22.1757 57.399 22.269 57.903 22.4557C58.4257 22.661 58.8457 22.969 59.1631 23.3797C58.7337 23.8464 58.519 24.3317 58.519 24.8357C58.519 25.153 58.603 25.433 58.771 25.6757C58.9577 25.937 59.2284 26.0677 59.583 26.0677C60.4044 26.0677 61.095 25.517 61.655 24.4157C62.215 23.3144 62.7097 21.5224 63.1391 19.0397C62.6351 19.5997 61.9817 20.029 61.179 20.3277C60.395 20.6264 59.5737 20.7757 58.7151 20.7757C56.0831 20.7757 54.767 19.329 54.767 16.4357C54.767 14.8864 55.1217 13.4304 55.8311 12.0677C56.5404 10.705 57.5484 9.61302 58.855 8.79169C60.1617 7.97036 61.6644 7.55969 63.3631 7.55969C64.3711 7.55969 65.2297 7.71836 65.9391 8.03569L70.4751 7.58769L68.375 18.5637ZM64.651 9.63169C64.3337 9.37036 63.9324 9.23969 63.447 9.23969C62.6444 9.23969 62.0004 9.67836 61.515 10.5557C61.0297 11.433 60.6844 12.469 60.479 13.6637C60.2737 14.8397 60.171 15.9317 60.171 16.9397C60.171 17.481 60.2364 17.901 60.3671 18.1997C60.5164 18.4797 60.7964 18.6197 61.2071 18.6197C62.3644 18.6197 63.1577 17.481 63.587 15.2037L64.651 9.63169Z" fill="#363A45"/>
<path d="M51.6973 18.2284C51.604 18.7324 51.5573 19.1244 51.5573 19.4044C51.5573 19.7964 51.6693 20.1324 51.8933 20.4124C52.1173 20.6924 52.444 20.851 52.8733 20.8884C52.668 21.5604 52.22 22.0737 51.5293 22.4284C50.8387 22.783 50.1013 22.9604 49.3173 22.9604C48.664 22.9604 48.076 22.8204 47.5533 22.5404C47.0493 22.279 46.704 21.887 46.5173 21.3644C46.0507 21.8684 45.4347 22.2604 44.6693 22.5404C43.9227 22.8204 43.1013 22.9604 42.2053 22.9604C40.6187 22.9604 39.4707 22.4937 38.7613 21.5604C38.0707 20.627 37.7253 19.255 37.7253 17.4444C37.7253 15.559 38.0707 13.8697 38.7613 12.3764C39.452 10.883 40.4507 9.70702 41.7573 8.84836C43.0827 7.98969 44.66 7.56036 46.4893 7.56036C47.18 7.56036 47.7773 7.62569 48.2813 7.75636L49.1773 2.80036L54.7213 2.24036L51.6973 18.2284ZM47.8333 9.74436C47.6467 9.57636 47.4133 9.45502 47.1333 9.38036C46.8533 9.28702 46.592 9.24036 46.3493 9.24036C45.8453 9.24036 45.4067 9.43636 45.0333 9.82836C44.6787 10.2204 44.3613 10.883 44.0813 11.8164C43.8013 12.731 43.54 14.0004 43.2973 15.6244C43.0733 17.155 42.9613 18.415 42.9613 19.4044C42.9613 19.983 43.0267 20.4217 43.1573 20.7204C43.3067 21.019 43.596 21.1684 44.0253 21.1684C44.6973 21.1684 45.22 20.823 45.5933 20.1324C45.9853 19.423 46.2653 18.6017 46.4333 17.6684L47.8333 9.74436Z" fill="#363A45"/>
<path d="M35.0808 1.40002C35.9582 1.40002 36.6675 1.59602 37.2088 1.98803C37.7502 2.38003 38.0208 2.93069 38.0208 3.64003C38.0208 4.34936 37.7315 4.90003 37.1528 5.29203C36.5928 5.68403 35.8648 5.88003 34.9688 5.88003C34.0728 5.88003 33.3448 5.69336 32.7848 5.32003C32.2435 4.92803 31.9728 4.38669 31.9728 3.69603C31.9728 2.96803 32.2622 2.40803 32.8408 2.01603C33.4382 1.60536 34.1848 1.40002 35.0808 1.40002ZM34.9128 18.228C34.8195 18.732 34.7728 19.124 34.7728 19.404C34.7728 19.796 34.8848 20.132 35.1088 20.412C35.3328 20.692 35.6595 20.8507 36.0888 20.888C35.8835 21.56 35.4355 22.0734 34.7448 22.428C34.0542 22.7827 33.2982 22.96 32.4768 22.96C31.5062 22.96 30.7222 22.7174 30.1248 22.232C29.5462 21.728 29.2568 21.0094 29.2568 20.076C29.2568 19.1614 29.5648 17.192 30.1808 14.168L30.2928 13.608L31.3568 8.12002L36.9848 7.56003L34.9128 18.228Z" fill="#363A45"/>
<path d="M21.7734 10.3037C22.6134 8.47436 24.0414 7.55969 26.0574 7.55969C27.1774 7.55969 28.036 7.83969 28.6334 8.39969C29.2307 8.95969 29.5294 9.76236 29.5294 10.8077C29.5294 12.0024 29.1654 12.9824 28.4374 13.7477C27.728 14.4944 26.8227 14.8677 25.7214 14.8677C25.3667 14.8677 25.0307 14.8304 24.7134 14.7557C24.4147 14.6624 24.1907 14.5224 24.0414 14.3357C24.3587 13.9064 24.6294 13.365 24.8534 12.7117C25.0774 12.0397 25.1894 11.433 25.1894 10.8917C25.1894 10.1077 24.9 9.71569 24.3214 9.71569C23.78 9.71569 23.2947 10.0984 22.8654 10.8637C22.436 11.6104 22.1 12.7117 21.8574 14.1677L20.5134 22.3997L14.7454 22.9597L17.6014 8.11969L22.1934 7.55969L21.7734 10.3037Z" fill="#363A45"/>
<path d="M16.348 3.91931C16.348 5.13264 16.096 6.04731 15.592 6.66331C15.1067 7.26065 14.2853 7.55931 13.128 7.55931C12.512 7.55931 11.8493 7.48465 11.14 7.33531C10.4307 7.18598 9.86133 7.00865 9.432 6.80331L8.592 11.3393H13.996C13.996 12.366 13.7533 13.1873 13.268 13.8033C12.7827 14.4006 12.008 14.6993 10.944 14.6993C10.4027 14.6993 9.87067 14.6246 9.348 14.4753C8.82533 14.326 8.396 14.1766 8.06 14.0273L6.576 22.3993H0.5L3.944 3.91931H16.348Z" fill="#363A45"/>
</svg>
