<svg width="187" height="36" viewBox="0 0 187 36" fill="none" xmlns="http://www.w3.org/2000/svg">
<path d="M177.152 7.09249C176.785 9.01249 176.333 10.5605 175.795 11.7365C177.188 10.3925 179.095 9.72049 181.515 9.72049C183.226 9.72049 184.534 10.1045 185.438 10.8725C186.343 11.6165 186.795 12.7445 186.795 14.2565C186.795 15.7685 186.343 17.0525 185.438 18.1085C184.558 19.1645 183.324 19.9085 181.735 20.3405L183.202 24.0845C183.813 25.6685 184.632 26.5085 185.658 26.6045C185.365 27.5405 184.791 28.2605 183.935 28.7645C183.104 29.2685 182.163 29.5205 181.112 29.5205C177.592 29.5205 175.648 26.4605 175.282 20.3405C176.504 20.0045 177.543 19.2845 178.398 18.1805C179.278 17.0765 179.718 15.8525 179.718 14.5085C179.718 13.1645 179.254 12.4925 178.325 12.4925C176.809 12.4925 175.697 14.2805 174.988 17.8565L172.825 28.8005L165.492 29.5205L170.662 3.60049L177.995 2.88049L177.152 7.09249Z" fill="black"/>
<path d="M153.077 13.2475C154.324 10.8955 156.56 9.71948 159.787 9.71948C163.307 9.71948 165.067 11.1235 165.067 13.9315C165.067 14.6515 164.969 15.5035 164.774 16.4875C164.578 17.4475 164.309 18.6115 163.967 19.9795C163.649 21.2275 163.417 22.2235 163.27 22.9675C163.124 23.6875 163.05 24.2995 163.05 24.8035C163.05 26.0275 163.625 26.7115 164.774 26.8555C164.505 27.7195 163.918 28.3795 163.014 28.8355C162.109 29.2915 161.119 29.5195 160.044 29.5195C158.772 29.5195 157.746 29.2075 156.964 28.5835C156.206 27.9355 155.827 27.0115 155.827 25.8115C155.827 25.2115 155.9 24.5035 156.047 23.6875C156.218 22.8715 156.487 21.6955 156.854 20.1595C157.196 18.7435 157.465 17.5675 157.66 16.6315C157.856 15.6955 157.954 14.9035 157.954 14.2555C157.954 13.0795 157.526 12.4915 156.67 12.4915C155.766 12.4915 155.057 13.0075 154.544 14.0395C154.055 15.0475 153.651 16.3195 153.334 17.8555L151.17 28.7995L143.837 29.5195L147.65 10.4395L153.664 9.71948L153.077 13.2475Z" fill="black"/>
<path d="M140.997 1.80005C142.146 1.80005 143.075 2.05205 143.784 2.55605C144.493 3.06005 144.847 3.76805 144.847 4.68005C144.847 5.59205 144.468 6.30005 143.71 6.80405C142.977 7.30805 142.024 7.56005 140.85 7.56005C139.677 7.56005 138.724 7.32005 137.99 6.84005C137.281 6.33605 136.927 5.64005 136.927 4.75205C136.927 3.81605 137.306 3.09605 138.064 2.59205C138.846 2.06405 139.824 1.80005 140.997 1.80005ZM140.777 23.4361C140.655 24.0841 140.594 24.5881 140.594 24.9481C140.594 25.4521 140.74 25.8841 141.034 26.2441C141.327 26.6041 141.755 26.8081 142.317 26.8561C142.048 27.7201 141.461 28.3801 140.557 28.8361C139.653 29.2921 138.663 29.5201 137.587 29.5201C136.316 29.5201 135.289 29.2081 134.507 28.5841C133.749 27.9361 133.37 27.0121 133.37 25.8121C133.37 24.6361 133.774 22.1041 134.58 18.2161L134.727 17.4961L136.12 10.4401L143.49 9.72005L140.777 23.4361Z" fill="black"/>
<path d="M120.633 5.03906H128.626L125.033 24.4791H128.296C129.934 24.4791 131.144 24.3591 131.926 24.1191C132.097 24.3351 132.22 24.6351 132.293 25.0191C132.391 25.4031 132.44 25.7631 132.44 26.0991C132.44 27.1311 132.024 27.8391 131.193 28.2231C130.362 28.6071 129.262 28.7991 127.893 28.7991H116.196L120.633 5.03906Z" fill="black"/>
<path d="M104.143 9.71948C108.225 9.71948 110.266 11.1835 110.266 14.1115C110.266 15.9355 109.472 17.3875 107.883 18.4675C106.318 19.5235 103.972 20.1355 100.843 20.3035C100.452 20.3275 99.8284 20.3395 98.9728 20.3395C98.8995 20.8435 98.8628 21.3475 98.8628 21.8515C98.8628 22.9075 99.095 23.6995 99.5595 24.2275C100.024 24.7315 100.794 24.9835 101.869 24.9835C102.847 24.9835 103.801 24.7795 104.729 24.3715C105.683 23.9635 106.392 23.4115 106.856 22.7155C107.467 23.0755 107.773 23.6515 107.773 24.4435C107.773 25.4515 107.394 26.3515 106.636 27.1435C105.878 27.9115 104.864 28.4995 103.593 28.9075C102.346 29.3155 101.026 29.5195 99.6328 29.5195C97.1884 29.5195 95.2939 28.8715 93.9495 27.5755C92.6295 26.2555 91.9695 24.2755 91.9695 21.6355C91.9695 19.4755 92.4217 17.4955 93.3261 15.6955C94.2306 13.8955 95.5873 12.4555 97.3961 11.3755C99.2295 10.2715 101.478 9.71948 104.143 9.71948ZM103.336 11.5555C102.456 11.5555 101.649 12.1555 100.916 13.3555C100.207 14.5315 99.645 16.3435 99.2295 18.7915C100.892 18.7915 102.212 18.2995 103.189 17.3155C104.167 16.3315 104.656 15.0595 104.656 13.4995C104.656 12.8755 104.558 12.3955 104.363 12.0595C104.167 11.7235 103.825 11.5555 103.336 11.5555Z" fill="black"/>
<path d="M88.884 23.8675C88.3218 26.6995 87.6251 28.9795 86.794 30.7075C85.9629 32.4355 84.7774 33.7435 83.2374 34.6315C81.6974 35.5435 79.644 35.9995 77.0774 35.9995C74.9018 35.9995 73.0196 35.6755 71.4307 35.0275C69.8418 34.4035 69.0474 33.3475 69.0474 31.8595C69.0474 30.8275 69.4385 30.0115 70.2207 29.4115C70.9785 28.8115 71.9074 28.5115 73.0074 28.5115C73.7896 28.5115 74.5107 28.6315 75.1707 28.8715C75.8551 29.1355 76.4051 29.5315 76.8207 30.0595C76.2585 30.6595 75.9774 31.2835 75.9774 31.9315C75.9774 32.3395 76.0874 32.6995 76.3074 33.0115C76.5518 33.3475 76.9062 33.5155 77.3707 33.5155C78.4462 33.5155 79.3507 32.8075 80.084 31.3915C80.8174 29.9755 81.4651 27.6715 82.0274 24.4795C81.3674 25.1995 80.5118 25.7515 79.4607 26.1355C78.434 26.5195 77.3585 26.7115 76.234 26.7115C72.7874 26.7115 71.064 24.8515 71.064 21.1315C71.064 19.1395 71.5285 17.2675 72.4574 15.5155C73.3863 13.7635 74.7063 12.3595 76.4174 11.3035C78.1285 10.2475 80.0963 9.71948 82.3207 9.71948C83.6407 9.71948 84.7651 9.92348 85.694 10.3315L91.634 9.75548L88.884 23.8675ZM84.0074 12.3835C83.5918 12.0475 83.0662 11.8795 82.4307 11.8795C81.3796 11.8795 80.5362 12.4435 79.9007 13.5715C79.2651 14.6995 78.8129 16.0315 78.544 17.5675C78.2751 19.0795 78.1407 20.4835 78.1407 21.7795C78.1407 22.4755 78.2263 23.0155 78.3974 23.3995C78.5929 23.7595 78.9596 23.9395 79.4974 23.9395C81.0129 23.9395 82.0518 22.4755 82.614 19.5475L84.0074 12.3835Z" fill="black"/>
<path d="M67.0442 23.4365C66.922 24.0845 66.8609 24.5885 66.8609 24.9485C66.8609 25.4525 67.0076 25.8845 67.3009 26.2445C67.5942 26.6045 68.022 26.8085 68.5842 26.8565C68.3153 27.7205 67.7287 28.3805 66.8242 28.8365C65.9198 29.2925 64.9542 29.5205 63.9276 29.5205C63.072 29.5205 62.302 29.3405 61.6176 28.9805C60.9576 28.6445 60.5053 28.1405 60.2609 27.4685C59.6498 28.1165 58.8431 28.6205 57.8409 28.9805C56.8631 29.3405 55.7876 29.5205 54.6142 29.5205C52.5364 29.5205 51.0331 28.9205 50.1042 27.7205C49.1998 26.5205 48.7476 24.7565 48.7476 22.4285C48.7476 20.0045 49.1998 17.8325 50.1042 15.9125C51.0087 13.9925 52.3164 12.4805 54.0276 11.3765C55.7631 10.2725 57.8287 9.72049 60.2242 9.72049C61.1287 9.72049 61.9109 9.80449 62.5709 9.97249L63.7442 3.60049L71.0042 2.88049L67.0442 23.4365ZM61.9842 12.5285C61.7398 12.3125 61.4342 12.1565 61.0676 12.0605C60.7009 11.9405 60.3587 11.8805 60.0409 11.8805C59.3809 11.8805 58.8064 12.1325 58.3176 12.6365C57.8531 13.1405 57.4376 13.9925 57.0709 15.1925C56.7042 16.3685 56.362 18.0005 56.0442 20.0885C55.7509 22.0565 55.6042 23.6765 55.6042 24.9485C55.6042 25.6925 55.6898 26.2565 55.8609 26.6405C56.0564 27.0245 56.4353 27.2165 56.9976 27.2165C57.8776 27.2165 58.562 26.7725 59.0509 25.8845C59.5642 24.9725 59.9309 23.9165 60.1509 22.7165L61.9842 12.5285Z" fill="black"/>
<path d="M45.2841 1.80005C46.433 1.80005 47.3619 2.05205 48.0708 2.55605C48.7797 3.06005 49.1341 3.76805 49.1341 4.68005C49.1341 5.59205 48.7552 6.30005 47.9975 6.80405C47.2641 7.30805 46.3108 7.56005 45.1375 7.56005C43.9641 7.56005 43.0108 7.32005 42.2775 6.84005C41.5686 6.33605 41.2141 5.64005 41.2141 4.75205C41.2141 3.81605 41.593 3.09605 42.3508 2.59205C43.133 2.06405 44.1108 1.80005 45.2841 1.80005ZM45.0641 23.4361C44.9419 24.0841 44.8808 24.5881 44.8808 24.9481C44.8808 25.4521 45.0275 25.8841 45.3208 26.2441C45.6141 26.6041 46.0419 26.8081 46.6041 26.8561C46.3352 27.7201 45.7486 28.3801 44.8441 28.8361C43.9397 29.2921 42.9497 29.5201 41.8741 29.5201C40.603 29.5201 39.5764 29.2081 38.7941 28.5841C38.0364 27.9361 37.6575 27.0121 37.6575 25.8121C37.6575 24.6361 38.0608 22.1041 38.8675 18.2161L39.0141 17.4961L40.4075 10.4401L47.7775 9.72005L45.0641 23.4361Z" fill="black"/>
<path d="M27.8581 13.2475C28.9581 10.8955 30.8281 9.71948 33.4681 9.71948C34.9348 9.71948 36.0592 10.0795 36.8415 10.7995C37.6237 11.5195 38.0148 12.5515 38.0148 13.8955C38.0148 15.4315 37.5381 16.6915 36.5848 17.6755C35.6559 18.6355 34.4703 19.1155 33.0281 19.1155C32.5637 19.1155 32.1237 19.0675 31.7081 18.9715C31.317 18.8515 31.0237 18.6715 30.8281 18.4315C31.2437 17.8795 31.5981 17.1835 31.8915 16.3435C32.1848 15.4795 32.3315 14.6995 32.3315 14.0035C32.3315 12.9955 31.9526 12.4915 31.1948 12.4915C30.4859 12.4915 29.8503 12.9835 29.2881 13.9675C28.7259 14.9275 28.2859 16.3435 27.9681 18.2155L26.2081 28.7995L18.6548 29.5195L22.3948 10.4395L28.4081 9.71948L27.8581 13.2475Z" fill="black"/>
<path d="M20.7533 5.03906C20.7533 6.59906 20.4233 7.77506 19.7633 8.56706C19.1278 9.33506 18.0522 9.71906 16.5367 9.71906C15.73 9.71906 14.8622 9.62306 13.9333 9.43106C13.0044 9.23906 12.2589 9.01106 11.6967 8.74706L10.5967 14.5791H17.6733C17.6733 15.8991 17.3556 16.9551 16.72 17.7471C16.0844 18.5151 15.07 18.8991 13.6767 18.8991C12.9678 18.8991 12.2711 18.8031 11.5867 18.6111C10.9022 18.4191 10.34 18.2271 9.9 18.0351L7.95667 28.7991H0L4.51 5.03906H20.7533Z" fill="black"/>
</svg>
