<svg width="128" height="87" viewBox="0 0 128 87" fill="none" xmlns="http://www.w3.org/2000/svg">
<rect x="0.5" y="0.5" width="127" height="86" rx="4.5" stroke="#9747FF" stroke-dasharray="10 5"/>
<circle cx="39" cy="39" r="19" fill="#3CAA8D"/>
<path fill-rule="evenodd" clip-rule="evenodd" d="M35.3672 30.4965C35.8283 30.4965 36.2022 30.8704 36.2022 31.3315V32.5034H42.0322V31.3315C42.0322 30.8704 42.406 30.4965 42.8672 30.4965C43.3283 30.4965 43.7022 30.8704 43.7022 31.3315V32.5034H44.83C45.7523 32.5034 46.5 33.2511 46.5 34.1734V36.3237H31.5V34.1734C31.5 33.2511 32.2477 32.5034 33.17 32.5034H34.5322V31.3315C34.5322 30.8704 34.906 30.4965 35.3672 30.4965ZM31.5 37.8237H46.5V45.8334C46.5 46.7557 45.7523 47.5034 44.83 47.5034H33.17C32.2477 47.5034 31.5 46.7557 31.5 45.8334V37.8237ZM35.25 42.6987C36.0267 42.6987 36.6563 42.0691 36.6563 41.2925C36.6563 40.5158 36.0267 39.8862 35.25 39.8862C34.4733 39.8862 33.8438 40.5158 33.8438 41.2925C33.8438 42.0691 34.4733 42.6987 35.25 42.6987Z" fill="white"/>
<circle cx="90" cy="39" r="19" fill="#3CAA8D"/>
<path fill-rule="evenodd" clip-rule="evenodd" d="M86.8874 30.0882C87.299 30.294 87.4659 30.7945 87.26 31.2062L85.7038 34.3187H94.2956L92.7393 31.2062C92.5335 30.7945 92.7003 30.294 93.112 30.0882C93.5236 29.8823 94.0242 30.0492 94.23 30.4608L96.159 34.3187H98.7493C99.2096 34.3187 99.5827 34.6918 99.5827 35.152V36.9702C99.5827 37.4305 99.2096 37.8036 98.7493 37.8036H97.3748L96.7744 46.4489C96.7137 47.3225 95.9874 48.0001 95.1117 48.0001H84.8883C84.0126 48.0001 83.2863 47.3225 83.2256 46.4489L82.6252 37.8036H81.2493C80.7891 37.8036 80.416 37.4305 80.416 36.9702V35.152C80.416 34.6918 80.7891 34.3187 81.2493 34.3187H83.8404L85.7693 30.4608C85.9751 30.0492 86.4757 29.8823 86.8874 30.0882ZM85.6426 39.8713C85.6426 39.3902 86.0327 39.0001 86.5138 39.0001C86.995 39.0001 87.385 39.3902 87.385 39.8713V43.3562C87.385 43.8373 86.995 44.2274 86.5138 44.2274C86.0327 44.2274 85.6426 43.8373 85.6426 43.3562V39.8713ZM89.9987 39.0001C89.5175 39.0001 89.1275 39.3902 89.1275 39.8713V43.3562C89.1275 43.8373 89.5175 44.2274 89.9987 44.2274C90.4799 44.2274 90.8699 43.8373 90.8699 43.3562V39.8713C90.8699 39.3902 90.4799 39.0001 89.9987 39.0001ZM92.6123 39.8713C92.6123 39.3902 93.0024 39.0001 93.4836 39.0001C93.9647 39.0001 94.3548 39.3902 94.3548 39.8713V43.3562C94.3548 43.8373 93.9647 44.2274 93.4836 44.2274C93.0024 44.2274 92.6123 43.8373 92.6123 43.3562V39.8713Z" fill="white"/>
</svg>
