<svg width="180" height="87" viewBox="0 0 180 87" fill="none" xmlns="http://www.w3.org/2000/svg">
<rect x="0.5" y="0.5" width="179" height="86" rx="4.5" stroke="#9747FF" stroke-dasharray="10 5"/>
<path fill-rule="evenodd" clip-rule="evenodd" d="M21.5078 26.8946C21.0839 27.209 20.834 27.7056 20.834 28.2333V37.7553C20.834 38.6758 21.5802 39.422 22.5007 39.422H25.5838C26.5043 39.422 27.2505 38.6758 27.2505 37.7553V34.8551C27.2505 33.3363 28.4817 32.1051 30.0005 32.1051C31.5193 32.1051 32.7505 33.3363 32.7505 34.8551V37.7553C32.7505 38.6758 33.4967 39.422 34.4172 39.422H37.5007C38.4211 39.422 39.1673 38.6758 39.1673 37.7553V28.2333C39.1673 27.7056 38.9174 27.209 38.4935 26.8946L30.9935 21.3321C30.4038 20.8948 29.5975 20.8948 29.0078 21.3321L21.5078 26.8946Z" fill="#CCCFD7"/>
<path fill-rule="evenodd" clip-rule="evenodd" d="M21.5078 53.8946C21.0839 54.209 20.834 54.7056 20.834 55.2333V64.7553C20.834 65.6758 21.5802 66.422 22.5007 66.422H25.5838C26.5043 66.422 27.2505 65.6758 27.2505 64.7553V61.8551C27.2505 60.3363 28.4817 59.1051 30.0005 59.1051C31.5193 59.1051 32.7505 60.3363 32.7505 61.8551V64.7553C32.7505 65.6758 33.4967 66.422 34.4172 66.422H37.5007C38.4211 66.422 39.1673 65.6758 39.1673 64.7553V55.2333C39.1673 54.7056 38.9174 54.209 38.4935 53.8946L30.9935 48.3321C30.4038 47.8948 29.5975 47.8948 29.0078 48.3321L21.5078 53.8946Z" fill="#0C5E5A"/>
<g clip-path="url(#clip0_213_3009)">
<rect x="60.8337" y="20.8332" width="8.33333" height="8.33333" rx="1.66667" fill="#CCCFD7"/>
<rect x="60.8337" y="30.8332" width="8.33333" height="8.33333" rx="1.66667" fill="#CCCFD7"/>
<rect x="70.8337" y="20.8332" width="8.33333" height="8.33333" rx="1.66667" fill="#CCCFD7"/>
<rect x="70.8337" y="30.8332" width="8.33333" height="8.33333" rx="1.66667" fill="#CCCFD7"/>
</g>
<path fill-rule="evenodd" clip-rule="evenodd" d="M106.887 21.0882C107.299 21.294 107.466 21.7945 107.26 22.2062L105.704 25.3187H114.296L112.739 22.2062C112.533 21.7945 112.7 21.294 113.112 21.0882C113.524 20.8823 114.024 21.0492 114.23 21.4608L116.159 25.3187H118.749C119.21 25.3187 119.583 25.6918 119.583 26.152V27.9702C119.583 28.4305 119.21 28.8036 118.749 28.8036H117.375L116.774 37.4489C116.714 38.3225 115.987 39.0001 115.112 39.0001H104.888C104.013 39.0001 103.286 38.3225 103.226 37.4489L102.625 28.8036H101.249C100.789 28.8036 100.416 28.4305 100.416 27.9702V26.152C100.416 25.6918 100.789 25.3187 101.249 25.3187H103.84L105.769 21.4608C105.975 21.0492 106.476 20.8823 106.887 21.0882ZM105.643 30.8713C105.643 30.3902 106.033 30.0001 106.514 30.0001C106.995 30.0001 107.385 30.3902 107.385 30.8713V34.3562C107.385 34.8373 106.995 35.2274 106.514 35.2274C106.033 35.2274 105.643 34.8373 105.643 34.3562V30.8713ZM109.999 30.0001C109.518 30.0001 109.127 30.3902 109.127 30.8713V34.3562C109.127 34.8373 109.518 35.2274 109.999 35.2274C110.48 35.2274 110.87 34.8373 110.87 34.3562V30.8713C110.87 30.3902 110.48 30.0001 109.999 30.0001ZM112.612 30.8713C112.612 30.3902 113.002 30.0001 113.484 30.0001C113.965 30.0001 114.355 30.3902 114.355 30.8713V34.3562C114.355 34.8373 113.965 35.2274 113.484 35.2274C113.002 35.2274 112.612 34.8373 112.612 34.3562V30.8713Z" fill="#CCCFD7"/>
<g clip-path="url(#clip1_213_3009)">
<path fill-rule="evenodd" clip-rule="evenodd" d="M160 30C160 35.5228 155.523 40 150 40C144.477 40 140 35.5228 140 30C140 24.4772 144.477 20 150 20C155.523 20 160 24.4772 160 30ZM152.779 27.2208C152.779 28.7557 151.535 30 150 30C148.465 30 147.221 28.7557 147.221 27.2208C147.221 25.6859 148.465 24.4416 150 24.4416C151.535 24.4416 152.779 25.6859 152.779 27.2208ZM145.442 34.7291C145.832 32.5666 147.724 30.9264 150 30.9264C152.275 30.9264 154.167 32.5666 154.558 34.7291C154.639 35.182 154.258 35.5584 153.798 35.5584H146.201C145.741 35.5584 145.36 35.182 145.442 34.7291Z" fill="#CCCFD7"/>
</g>
<g clip-path="url(#clip2_213_3009)">
<rect x="60.8337" y="47.8332" width="8.33333" height="8.33333" rx="1.66667" fill="#0C5E5A"/>
<rect x="60.8337" y="57.8332" width="8.33333" height="8.33333" rx="1.66667" fill="#0C5E5A"/>
<rect x="70.8337" y="47.8332" width="8.33333" height="8.33333" rx="1.66667" fill="#0C5E5A"/>
<rect x="70.8337" y="57.8332" width="8.33333" height="8.33333" rx="1.66667" fill="#0C5E5A"/>
</g>
<path fill-rule="evenodd" clip-rule="evenodd" d="M106.887 48.0882C107.299 48.294 107.466 48.7945 107.26 49.2062L105.704 52.3187H114.296L112.739 49.2062C112.533 48.7945 112.7 48.294 113.112 48.0882C113.524 47.8823 114.024 48.0492 114.23 48.4608L116.159 52.3187H118.749C119.21 52.3187 119.583 52.6918 119.583 53.152V54.9702C119.583 55.4305 119.21 55.8036 118.749 55.8036H117.375L116.774 64.4489C116.714 65.3225 115.987 66.0001 115.112 66.0001H104.888C104.013 66.0001 103.286 65.3225 103.226 64.4489L102.625 55.8036H101.249C100.789 55.8036 100.416 55.4305 100.416 54.9702V53.152C100.416 52.6918 100.789 52.3187 101.249 52.3187H103.84L105.769 48.4608C105.975 48.0492 106.476 47.8823 106.887 48.0882ZM105.643 57.8713C105.643 57.3902 106.033 57.0001 106.514 57.0001C106.995 57.0001 107.385 57.3902 107.385 57.8713V61.3562C107.385 61.8373 106.995 62.2274 106.514 62.2274C106.033 62.2274 105.643 61.8373 105.643 61.3562V57.8713ZM109.999 57.0001C109.518 57.0001 109.127 57.3902 109.127 57.8713V61.3562C109.127 61.8373 109.518 62.2274 109.999 62.2274C110.48 62.2274 110.87 61.8373 110.87 61.3562V57.8713C110.87 57.3902 110.48 57.0001 109.999 57.0001ZM112.612 57.8713C112.612 57.3902 113.002 57.0001 113.484 57.0001C113.965 57.0001 114.355 57.3902 114.355 57.8713V61.3562C114.355 61.8373 113.965 62.2274 113.484 62.2274C113.002 62.2274 112.612 61.8373 112.612 61.3562V57.8713Z" fill="#0C5E5A"/>
<g clip-path="url(#clip3_213_3009)">
<path fill-rule="evenodd" clip-rule="evenodd" d="M160 57C160 62.5228 155.523 67 150 67C144.477 67 140 62.5228 140 57C140 51.4772 144.477 47 150 47C155.523 47 160 51.4772 160 57ZM152.779 54.2208C152.779 55.7557 151.535 57 150 57C148.465 57 147.221 55.7557 147.221 54.2208C147.221 52.6859 148.465 51.4416 150 51.4416C151.535 51.4416 152.779 52.6859 152.779 54.2208ZM145.442 61.7291C145.832 59.5666 147.724 57.9264 150 57.9264C152.275 57.9264 154.167 59.5666 154.558 61.7291C154.639 62.182 154.258 62.5584 153.798 62.5584H146.201C145.741 62.5584 145.36 62.182 145.442 61.7291Z" fill="#0C5E5A"/>
</g>
<defs>
<clipPath id="clip0_213_3009">
<rect width="20" height="20" fill="white" transform="translate(60 20)"/>
</clipPath>
<clipPath id="clip1_213_3009">
<rect width="20" height="20" fill="white" transform="translate(140 20)"/>
</clipPath>
<clipPath id="clip2_213_3009">
<rect width="20" height="20" fill="white" transform="translate(60 47)"/>
</clipPath>
<clipPath id="clip3_213_3009">
<rect width="20" height="20" fill="white" transform="translate(140 47)"/>
</clipPath>
</defs>
</svg>
