<svg width="20" height="20" viewBox="0 0 20 20" fill="none" xmlns="http://www.w3.org/2000/svg">
<g clip-path="url(#clip0_354_8882)">
<circle cx="10" cy="10" r="9.5" fill="#6E768C"/>
<path fill-rule="evenodd" clip-rule="evenodd" d="M13.7714 6.22882C14.0235 6.48096 14.0235 6.88976 13.7714 7.1419L7.142 13.7713C6.88986 14.0234 6.48106 14.0234 6.22892 13.7713C5.97678 13.5191 5.97678 13.1104 6.22892 12.8582L12.8583 6.22882C13.1105 5.97668 13.5192 5.97668 13.7714 6.22882Z" fill="white"/>
<path fill-rule="evenodd" clip-rule="evenodd" d="M13.7713 13.7712C13.5192 14.0234 13.1104 14.0234 12.8582 13.7712L6.22885 7.14184C5.97671 6.8897 5.97671 6.4809 6.22885 6.22876C6.48099 5.97662 6.88979 5.97662 7.14193 6.22876L13.7713 12.8582C14.0235 13.1103 14.0235 13.5191 13.7713 13.7712Z" fill="white"/>
</g>
<defs>
<clipPath id="clip0_354_8882">
<rect width="20" height="20" fill="white"/>
</clipPath>
</defs>
</svg>
