<svg width="20" height="20" viewBox="0 0 20 20" fill="none" xmlns="http://www.w3.org/2000/svg">
<path d="M1 3.0251C1 2.03099 1.80589 1.2251 2.8 1.2251H17.2C18.1941 1.2251 19 2.03099 19 3.0251V5.7251H1V3.0251Z" fill="#0C5E5A"/>
<path fill-rule="evenodd" clip-rule="evenodd" d="M16.3006 18.775C17.2947 18.775 18.1006 17.9691 18.1006 16.975V7.07501H1.90062V16.975C1.90062 17.9691 2.70652 18.775 3.70062 18.775H16.3006ZM7.13187 8.98751C6.57267 8.98751 6.11937 9.44103 6.11937 10C6.11937 10.559 6.57267 11.0125 7.13187 11.0125H12.8694C13.4286 11.0125 13.8819 10.559 13.8819 10C13.8819 9.44103 13.4286 8.98751 12.8694 8.98751H7.13187Z" fill="#0C5E5A"/>
</svg>
