<svg width="20" height="20" viewBox="0 0 20 20" fill="none" xmlns="http://www.w3.org/2000/svg">
<g clip-path="url(#clip0_194_2000)">
<path fill-rule="evenodd" clip-rule="evenodd" d="M10.4472 0.0855103C10.9084 0.0855103 11.2822 0.459352 11.2822 0.92051V3.42192L12.8029 1.90127C13.1289 1.57518 13.6576 1.57518 13.9837 1.90127C14.3098 2.22735 14.3098 2.75605 13.9837 3.08213L11.2822 5.78365V8.80384L13.8974 7.29398L14.8862 3.6034C15.0056 3.15796 15.4635 2.89361 15.9089 3.01297C16.3543 3.13233 16.6187 3.59019 16.4993 4.03563L15.9427 6.11311L18.1093 4.86222C18.5087 4.63164 19.0193 4.76847 19.2499 5.16785C19.4805 5.56722 19.3437 6.0779 18.9443 6.30848L16.778 7.55921L18.8553 8.11582C19.3007 8.23518 19.5651 8.69304 19.4457 9.13848C19.3263 9.58393 18.8685 9.84827 18.423 9.72892L14.7326 8.74008L12.1174 10.25L14.7327 11.7599L18.4231 10.771C18.8685 10.6517 19.3264 10.916 19.4458 11.3615C19.5651 11.8069 19.3008 12.2648 18.8553 12.3841L16.778 12.9407L18.9443 14.1915C19.3437 14.4221 19.4806 14.9327 19.25 15.3321C19.0194 15.7315 18.5087 15.8683 18.1093 15.6377L15.9431 14.387L16.4997 16.4643C16.619 16.9098 16.3547 17.3676 15.9092 17.487C15.4638 17.6063 15.0059 17.342 14.8866 16.8966L13.8977 13.2062L11.2822 11.6961V14.9125L13.9837 17.614C14.3098 17.9401 14.3098 18.4688 13.9837 18.7949C13.6576 19.121 13.1289 19.121 12.8029 18.7949L11.2822 17.2742V19.5793C11.2822 20.0405 10.9084 20.4143 10.4472 20.4143C9.98604 20.4143 9.6122 20.0405 9.6122 19.5793V17.2742L8.09155 18.7949C7.76546 19.121 7.23677 19.121 6.91068 18.7949C6.58459 18.4688 6.58459 17.9401 6.91068 17.614L9.6122 14.9125V11.6964L6.82667 13.3046L5.83783 16.995C5.71847 17.4404 5.26061 17.7048 4.81517 17.5854C4.36972 17.4661 4.10537 17.0082 4.22473 16.5628L4.78134 14.4855L2.78528 15.6379C2.3859 15.8685 1.87522 15.7316 1.64464 15.3323C1.41407 14.9329 1.5509 14.4222 1.95028 14.1916L3.94637 13.0392L1.86908 12.4826C1.42363 12.3632 1.15929 11.9054 1.27864 11.4599C1.398 11.0145 1.85586 10.7501 2.30131 10.8695L5.99169 11.8583L8.77744 10.25L5.99217 8.64188L2.30164 9.63076C1.8562 9.75011 1.39834 9.48577 1.27898 9.04032C1.15963 8.59488 1.42397 8.13702 1.86942 8.01766L3.94685 7.46102L1.95034 6.30833C1.55096 6.07775 1.41413 5.56707 1.64471 5.1677C1.87529 4.76832 2.38596 4.63149 2.78534 4.86207L4.78164 6.01463L4.22507 3.93747C4.10571 3.49203 4.37006 3.03417 4.8155 2.91481C5.26095 2.79546 5.71881 3.0598 5.83816 3.50525L6.82696 7.1955L9.6122 8.80356V5.78365L6.91068 3.08213C6.58459 2.75605 6.58459 2.22735 6.91068 1.90127C7.23677 1.57518 7.76546 1.57518 8.09155 1.90127L9.6122 3.42192V0.92051C9.6122 0.459352 9.98604 0.0855103 10.4472 0.0855103Z" fill="#0C5E5A"/>
</g>
<defs>
<clipPath id="clip0_194_2000">
<rect width="20" height="20" fill="white"/>
</clipPath>
</defs>
</svg>
