<svg width="20" height="20" viewBox="0 0 20 20" fill="none" xmlns="http://www.w3.org/2000/svg">
<path fill-rule="evenodd" clip-rule="evenodd" d="M5.61902 1C6.1713 1 6.61902 1.44772 6.61902 2V2.80952H13.6666V2C13.6666 1.44772 14.1143 1 14.6666 1C15.2189 1 15.6666 1.44772 15.6666 2V2.80952H16.6157C17.538 2.80952 18.2857 3.55721 18.2857 4.47952V17.4252C18.2857 18.3476 17.538 19.0952 16.6157 19.0952H3.67C2.74769 19.0952 2 18.3476 2 17.4252V4.47952C2 3.55721 2.74768 2.80952 3.67 2.80952H4.61902V2C4.61902 1.44772 5.06673 1 5.61902 1ZM4 17.0952V8.2381H16.2857V17.0952H4ZM7.28905 10.0476C6.36673 10.0476 5.61905 10.7953 5.61905 11.7176V11.9967C5.61905 12.919 6.36673 13.6667 7.28905 13.6667H7.5681C8.49041 13.6667 9.2381 12.919 9.2381 11.9967V11.7176C9.2381 10.7953 8.49041 10.0476 7.5681 10.0476H7.28905Z" fill="#0C5E5A"/>
</svg>
