<svg width="20" height="20" viewBox="0 0 20 20" fill="none" xmlns="http://www.w3.org/2000/svg">
<path fill-rule="evenodd" clip-rule="evenodd" d="M6.88736 1.08816C7.29901 1.29398 7.46586 1.79455 7.26003 2.20619L5.70378 5.31871H14.2956L12.7393 2.20619C12.5335 1.79455 12.7003 1.29398 13.112 1.08816C13.5236 0.882336 14.0242 1.04919 14.23 1.46084L16.159 5.31871H18.7493C19.2096 5.31871 19.5827 5.6918 19.5827 6.15204V7.97022C19.5827 8.43046 19.2096 8.80355 18.7493 8.80355H17.3748L16.7744 17.4489C16.7137 18.3225 15.9874 19.0001 15.1117 19.0001H4.88827C4.01261 19.0001 3.28627 18.3225 3.22561 17.4489L2.62524 8.80355H1.24935C0.789111 8.80355 0.416016 8.43046 0.416016 7.97022V6.15204C0.416016 5.6918 0.789112 5.31871 1.24935 5.31871H3.84039L5.76932 1.46084C5.97515 1.04919 6.47571 0.882336 6.88736 1.08816ZM5.64262 10.8713C5.64262 10.3902 6.03268 10.0001 6.51383 10.0001C6.99499 10.0001 7.38505 10.3902 7.38505 10.8713V14.3562C7.38505 14.8373 6.99499 15.2274 6.51383 15.2274C6.03268 15.2274 5.64262 14.8373 5.64262 14.3562V10.8713ZM9.9987 10.0001C9.51754 10.0001 9.12749 10.3902 9.12749 10.8713V14.3562C9.12749 14.8373 9.51754 15.2274 9.9987 15.2274C10.4799 15.2274 10.8699 14.8373 10.8699 14.3562V10.8713C10.8699 10.3902 10.4799 10.0001 9.9987 10.0001ZM12.6123 10.8713C12.6123 10.3902 13.0024 10.0001 13.4836 10.0001C13.9647 10.0001 14.3548 10.3902 14.3548 10.8713V14.3562C14.3548 14.8373 13.9647 15.2274 13.4836 15.2274C13.0024 15.2274 12.6123 14.8373 12.6123 14.3562V10.8713Z" fill="#0C5E5A"/>
</svg>
