<svg width="20" height="20" viewBox="0 0 20 20" fill="none" xmlns="http://www.w3.org/2000/svg">
<g clip-path="url(#clip0_219_2502)">
<path fill-rule="evenodd" clip-rule="evenodd" d="M6.835 3.08752C6.835 2.62636 7.20884 2.25252 7.67 2.25252H12.33C12.7912 2.25252 13.165 2.62636 13.165 3.08752V3.41752H6.835V3.08752ZM5.165 3.41752V3.08752C5.165 1.70405 6.28653 0.58252 7.67 0.58252H12.33C13.7135 0.58252 14.835 1.70405 14.835 3.08752V3.41752H15.7443H19.1667C19.6269 3.41752 20 3.79062 20 4.25085V4.58419C20 5.04442 19.6269 5.41752 19.1667 5.41752H17.3958L16.749 17.8375C16.7028 18.7231 15.9713 19.4175 15.0845 19.4175H4.91545C4.02867 19.4175 3.29717 18.7231 3.25104 17.8375L2.60417 5.41752H0.833334C0.373096 5.41752 0 5.04442 0 4.58419V4.25085C0 3.79062 0.373096 3.41752 0.833333 3.41752H4.25573H5.165ZM6.51379 7.41752C6.03263 7.41752 5.64258 7.80757 5.64258 8.28873V15.5463C5.64258 16.0275 6.03263 16.4175 6.51379 16.4175C6.99495 16.4175 7.385 16.0275 7.385 15.5463V8.28873C7.385 7.80757 6.99495 7.41752 6.51379 7.41752ZM9.12744 8.28873C9.12744 7.80757 9.5175 7.41752 9.99865 7.41752C10.4798 7.41752 10.8699 7.80757 10.8699 8.28873V15.5463C10.8699 16.0275 10.4798 16.4175 9.99865 16.4175C9.5175 16.4175 9.12744 16.0275 9.12744 15.5463V8.28873ZM13.4835 7.41752C13.0024 7.41752 12.6123 7.80757 12.6123 8.28873V15.5463C12.6123 16.0275 13.0024 16.4175 13.4835 16.4175C13.9647 16.4175 14.3547 16.0275 14.3547 15.5463V8.28873C14.3547 7.80757 13.9647 7.41752 13.4835 7.41752Z" fill="#B5B9C5"/>
</g>
<defs>
<clipPath id="clip0_219_2502">
<rect width="20" height="20" fill="white"/>
</clipPath>
</defs>
</svg>
