<svg width="12" height="12" viewBox="0 0 12 12" fill="none" xmlns="http://www.w3.org/2000/svg">
<g clip-path="url(#clip0_201_3608)">
<path fill-rule="evenodd" clip-rule="evenodd" d="M0 6C0 2.68629 2.68629 0 6 0C9.31371 0 12 2.68629 12 6C12 9.31371 9.31371 12 6 12C2.68629 12 0 9.31371 0 6ZM5.9999 3.00039C6.33127 3.00039 6.5999 3.26902 6.5999 3.60039V5.40039H8.40017C8.73154 5.40039 9.00017 5.66902 9.00017 6.00039C9.00017 6.33176 8.73154 6.60039 8.40017 6.60039H6.5999V8.40039C6.5999 8.73176 6.33127 9.00039 5.9999 9.00039C5.66853 9.00039 5.3999 8.73176 5.3999 8.40039V6.60039H3.60017C3.2688 6.60039 3.00017 6.33176 3.00017 6.00039C3.00017 5.66902 3.2688 5.40039 3.60017 5.40039H5.3999V3.60039C5.3999 3.26902 5.66853 3.00039 5.9999 3.00039Z" fill="#9299AA"/>
</g>
<defs>
<clipPath id="clip0_201_3608">
<rect width="12" height="12" fill="white"/>
</clipPath>
</defs>
</svg>
