<svg width="49" height="26" viewBox="0 0 49 26" fill="none" xmlns="http://www.w3.org/2000/svg">
<path d="M0 0H49V14C49 20.6274 43.6274 26 37 26H0V0Z" fill="#0FAEA6"/>
<path d="M19.8242 8.51562V17H18.6406L14.3398 10.8008H14.2695V17H12.9805V8.51562H14.1758L18.4766 14.7266H18.5586V8.51562H19.8242ZM24.1953 17.1289C22.3203 17.1289 21.166 15.834 21.1719 13.8594C21.166 11.9023 22.3379 10.5547 24.1133 10.5547C25.5605 10.5547 26.9375 11.4512 26.9375 13.7539V14.1992H22.4141C22.4492 15.4121 23.1641 16.0977 24.207 16.0977C24.916 16.0977 25.3789 15.793 25.5898 15.4062H26.8555C26.5742 16.4375 25.5957 17.1289 24.1953 17.1289ZM22.4199 13.2617H25.707C25.707 12.2949 25.0801 11.5801 24.125 11.5859C23.123 11.5801 22.4727 12.3652 22.4199 13.2617ZM29.5273 17L27.6641 10.6367H28.9531L30.1953 15.3008H30.2656L31.5078 10.6367H32.7969L34.0273 15.2773H34.0977L35.3281 10.6367H36.6172L34.7539 17H33.4766L32.1875 12.418H32.0938L30.8164 17H29.5273Z" fill="white"/>
</svg>
