<svg width="32" height="32" viewBox="0 0 32 32" fill="none" xmlns="http://www.w3.org/2000/svg">
<path fill-rule="evenodd" clip-rule="evenodd" d="M16 32C24.8366 32 32 24.8366 32 16C32 7.16344 24.8366 0 16 0C7.16344 0 0 7.16344 0 16C0 24.8366 7.16344 32 16 32ZM11.9103 21.4139C12.5329 20.0448 14.0916 19 16 19C17.9084 19 19.4671 20.0448 20.0897 21.4139C20.3183 21.9167 20.9112 22.1389 21.4139 21.9103C21.9167 21.6817 22.1389 21.0888 21.9103 20.5861C20.9331 18.437 18.6173 17 16 17C13.3827 17 11.0669 18.437 10.0897 20.5861C9.86108 21.0888 10.0833 21.6817 10.5861 21.9103C11.0888 22.1389 11.6817 21.9167 11.9103 21.4139ZM12.8333 12.9C12.8333 13.9493 11.9827 14.8 10.9333 14.8C9.884 14.8 9.03334 13.9493 9.03334 12.9C9.03334 11.8507 9.884 11 10.9333 11C11.9827 11 12.8333 11.8507 12.8333 12.9ZM21.0667 14.8C22.116 14.8 22.9667 13.9493 22.9667 12.9C22.9667 11.8507 22.116 11 21.0667 11C20.0173 11 19.1667 11.8507 19.1667 12.9C19.1667 13.9493 20.0173 14.8 21.0667 14.8Z" fill="#E0E1E6"/>
</svg>
