<svg width="180" height="69" viewBox="0 0 180 69" fill="none" xmlns="http://www.w3.org/2000/svg">
<rect x="0.5" y="0.5" width="179" height="68" rx="4.5" stroke="#9747FF" stroke-dasharray="10 5"/>
<rect x="20" y="20" width="65" height="29" rx="14.5" fill="#3CAA8D"/>
<path d="M41.4626 30.088C41.4486 33.798 40.3286 37.06 35.7226 39.3L34.9106 38.124C37.0526 37.074 38.3686 35.842 39.1246 34.358L35.1906 34.736L34.9946 33.42L39.6146 33.126C39.7826 32.566 39.8806 31.95 39.9366 31.32H35.6386V30.088H41.4626ZM43.5346 41.204V28.856H45.0746V41.204H43.5346ZM57.2862 28.884V41.204H55.7462V38.376H53.1142V37.228H55.7462V28.884H57.2862ZM46.8142 35.212C49.1242 35.212 52.2182 35.198 54.9062 34.82L54.9902 35.94C53.8562 36.136 52.6942 36.262 51.5462 36.346V40.84H50.0062V36.416C48.9422 36.458 47.9202 36.472 47.0102 36.472L46.8142 35.212ZM47.7102 31.908C47.6962 30.438 49.0122 29.402 50.8742 29.416C52.6802 29.402 54.0102 30.438 54.0102 31.908C54.0102 33.406 52.6802 34.386 50.8742 34.4C49.0122 34.386 47.6962 33.406 47.7102 31.908ZM49.1382 31.908C49.1242 32.734 49.8242 33.238 50.8742 33.224C51.8542 33.238 52.5542 32.734 52.5542 31.908C52.5542 31.096 51.8542 30.564 50.8742 30.564C49.8242 30.564 49.1242 31.096 49.1382 31.908ZM68.9938 34.652V35.884H60.3418V29.92H68.8818V31.18H61.8258V34.652H68.9938ZM58.9698 39.636V38.376H70.2538V39.636H58.9698Z" fill="white"/>
<rect x="95" y="20" width="65" height="29" rx="14.5" fill="white"/>
<path d="M116.463 30.088C116.449 33.798 115.329 37.06 110.723 39.3L109.911 38.124C112.053 37.074 113.369 35.842 114.125 34.358L110.191 34.736L109.995 33.42L114.615 33.126C114.783 32.566 114.881 31.95 114.937 31.32H110.639V30.088H116.463ZM118.535 41.204V28.856H120.075V41.204H118.535ZM132.286 28.884V41.204H130.746V38.376H128.114V37.228H130.746V28.884H132.286ZM121.814 35.212C124.124 35.212 127.218 35.198 129.906 34.82L129.99 35.94C128.856 36.136 127.694 36.262 126.546 36.346V40.84H125.006V36.416C123.942 36.458 122.92 36.472 122.01 36.472L121.814 35.212ZM122.71 31.908C122.696 30.438 124.012 29.402 125.874 29.416C127.68 29.402 129.01 30.438 129.01 31.908C129.01 33.406 127.68 34.386 125.874 34.4C124.012 34.386 122.696 33.406 122.71 31.908ZM124.138 31.908C124.124 32.734 124.824 33.238 125.874 33.224C126.854 33.238 127.554 32.734 127.554 31.908C127.554 31.096 126.854 30.564 125.874 30.564C124.824 30.564 124.124 31.096 124.138 31.908ZM143.994 34.652V35.884H135.342V29.92H143.882V31.18H136.826V34.652H143.994ZM133.97 39.636V38.376H145.254V39.636H133.97Z" fill="#B5B9C5"/>
</svg>
