<svg width="125" height="87" viewBox="0 0 125 87" fill="none" xmlns="http://www.w3.org/2000/svg">
<rect x="0.5" y="0.5" width="124" height="86" rx="4.5" stroke="#9747FF" stroke-dasharray="10 5"/>
<path fill-rule="evenodd" clip-rule="evenodd" d="M95.2257 21.7338C94.3034 21.7338 93.5557 22.4814 93.5557 23.4038V23.9031C93.5557 24.6109 93.0995 25.2256 92.4789 25.566C92.3812 25.6196 92.2848 25.6753 92.1899 25.7332C91.5851 26.1017 90.8242 26.1895 90.211 25.8353L89.7782 25.5854C88.9796 25.124 87.9582 25.3975 87.4969 26.1961L86.7224 27.5369C86.261 28.3355 86.5345 29.357 87.3331 29.8183L87.7682 30.0696C88.3803 30.4232 88.6849 31.1245 88.6689 31.8312C88.6677 31.8873 88.667 31.9435 88.667 31.9998C88.667 32.0563 88.6677 32.1126 88.669 32.1688C88.6849 32.8755 88.3803 33.5769 87.7682 33.9305L87.3332 34.1818C86.5345 34.6431 86.2611 35.6645 86.7224 36.4632L87.4969 37.8039C87.9582 38.6026 88.9797 38.876 89.7783 38.4147L90.2113 38.1646C90.8245 37.8104 91.5854 37.8982 92.1901 38.2667C92.285 38.3245 92.3813 38.3802 92.479 38.4337C93.0995 38.7741 93.5558 39.3888 93.5558 40.0966V40.5962C93.5558 41.5186 94.3035 42.2662 95.2258 42.2662H96.7745C97.6968 42.2662 98.4445 41.5186 98.4445 40.5962V40.0965C98.4445 39.3888 98.9007 38.774 99.5212 38.4337C99.6189 38.3802 99.7151 38.3245 99.81 38.2667C100.415 37.8982 101.176 37.8104 101.789 38.1646L102.222 38.4147C103.02 38.876 104.042 38.6025 104.503 37.8039L105.278 36.4631C105.739 35.6645 105.466 34.6431 104.667 34.1817L104.232 33.9305C103.62 33.5769 103.315 32.8755 103.331 32.1688C103.332 32.1126 103.333 32.0563 103.333 31.9998C103.333 31.9434 103.332 31.8872 103.331 31.8311C103.315 31.1244 103.62 30.423 104.232 30.0694L104.667 29.8182C105.466 29.3569 105.739 28.3355 105.278 27.5368L104.503 26.196C104.042 25.3974 103.02 25.1239 102.222 25.5853L101.789 25.8352C101.176 26.1895 100.415 26.1016 99.8101 25.7331C99.7152 25.6753 99.6189 25.6195 99.5212 25.566C98.9006 25.2256 98.4444 24.6109 98.4444 23.9031V23.4038C98.4444 22.4815 97.6967 21.7338 96.7744 21.7338H95.2257ZM96 34.9331C97.62 34.9331 98.9332 33.6198 98.9332 31.9999C98.9332 30.3799 97.62 29.0666 96 29.0666C94.3801 29.0666 93.0668 30.3799 93.0668 31.9999C93.0668 33.6198 94.3801 34.9331 96 34.9331Z" fill="#363A45"/>
<path fill-rule="evenodd" clip-rule="evenodd" d="M37.631 30.735C37.631 34.4725 34.6011 37.5024 30.8636 37.5024C27.126 37.5024 24.0961 34.4725 24.0961 30.735C24.0961 26.9974 27.126 23.9676 30.8636 23.9676C34.6011 23.9676 37.631 26.9974 37.631 30.735ZM36.0825 37.4256C34.6431 38.5499 32.8316 39.22 30.8636 39.22C26.1774 39.22 22.3786 35.4211 22.3786 30.735C22.3786 26.0489 26.1774 22.25 30.8636 22.25C35.5497 22.25 39.3485 26.0489 39.3485 30.735C39.3485 32.8344 38.5861 34.7556 37.323 36.2371L41.3699 40.284C41.7053 40.6194 41.7053 41.1631 41.3699 41.4985C41.0346 41.8339 40.4908 41.8339 40.1554 41.4985L36.0825 37.4256Z" fill="#363A45"/>
<path fill-rule="evenodd" clip-rule="evenodd" d="M64 40.33C68.6005 40.33 72.33 36.6005 72.33 32C72.33 27.3995 68.6005 23.67 64 23.67C59.3995 23.67 55.67 27.3995 55.67 32C55.67 36.6005 59.3995 40.33 64 40.33ZM64 42C69.5228 42 74 37.5228 74 32C74 26.4772 69.5228 22 64 22C58.4772 22 54 26.4772 54 32C54 37.5228 58.4772 42 64 42Z" fill="#363A45"/>
<path d="M60.7503 32C60.7503 32.6904 60.1906 33.25 59.5003 33.25C58.8099 33.25 58.2503 32.6904 58.2503 32C58.2503 31.3096 58.8099 30.75 59.5003 30.75C60.1906 30.75 60.7503 31.3096 60.7503 32Z" fill="#363A45"/>
<path d="M65.25 32C65.25 32.6904 64.6904 33.25 64 33.25C63.3096 33.25 62.75 32.6904 62.75 32C62.75 31.3096 63.3096 30.75 64 30.75C64.6904 30.75 65.25 31.3096 65.25 32Z" fill="#363A45"/>
<path d="M69.7497 32C69.7497 32.6904 69.1901 33.25 68.4997 33.25C67.8094 33.25 67.2497 32.6904 67.2497 32C67.2497 31.3096 67.8094 30.75 68.4997 30.75C69.1901 30.75 69.7497 31.3096 69.7497 32Z" fill="#363A45"/>
</svg>
