<svg width="320" height="72" viewBox="0 0 320 72" fill="none" xmlns="http://www.w3.org/2000/svg">
<path fill-rule="evenodd" clip-rule="evenodd" d="M32.0078 18.8946C31.5839 19.209 31.334 19.7056 31.334 20.2333V29.7553C31.334 30.6758 32.0802 31.422 33.0007 31.422H36.0838C37.0043 31.422 37.7505 30.6758 37.7505 29.7553V26.8551C37.7505 25.3363 38.9817 24.1051 40.5005 24.1051C42.0193 24.1051 43.2505 25.3363 43.2505 26.8551V29.7553C43.2505 30.6758 43.9967 31.422 44.9172 31.422H48.0007C48.9211 31.422 49.6673 30.6758 49.6673 29.7553V20.2333C49.6673 19.7056 49.4174 19.209 48.9935 18.8946L41.4935 13.3321C40.9038 12.8948 40.0975 12.8948 39.5078 13.3321L32.0078 18.8946Z" fill="#0C5E5A"/>
<path d="M44.1504 44.832V47.9141H36.8027V44.832H44.1504ZM35.666 44.2109V43.1797H39.8379V42.5645C37.998 42.4766 36.9668 41.9727 36.9668 41.0703C36.9668 40.0742 38.2383 39.5703 40.4824 39.5703C42.75 39.5703 44.0039 40.0742 44.0098 41.0703C44.0039 41.9727 42.9902 42.4766 41.1387 42.5645V43.1797H45.3223V44.2109H35.666ZM36.1465 39.2422V38.2578H39.8379V37.332H41.1387V38.2578H44.7949V39.2422H36.1465ZM38.0918 46.9297H42.8848V45.8164H38.0918V46.9297ZM38.3613 41.0703C38.3613 41.4863 39.082 41.6914 40.4824 41.6914C41.9062 41.6914 42.6094 41.4863 42.6152 41.0703C42.6094 40.6426 41.9062 40.4551 40.4824 40.4492C39.082 40.4551 38.3613 40.6426 38.3613 41.0703Z" fill="#0C5E5A"/>
<g clip-path="url(#clip0_213_3139)">
<rect x="110.834" y="12.8332" width="8.33333" height="8.33333" rx="1.66667" fill="#CCCFD7"/>
<rect x="110.834" y="22.8332" width="8.33333" height="8.33333" rx="1.66667" fill="#CCCFD7"/>
<rect x="120.834" y="12.8332" width="8.33333" height="8.33333" rx="1.66667" fill="#CCCFD7"/>
<rect x="120.834" y="22.8332" width="8.33333" height="8.33333" rx="1.66667" fill="#CCCFD7"/>
</g>
<path d="M108.633 37.4961V47.9961H107.566V42.6172H106.219V47.457H105.176V37.707H106.219V41.7031H107.566V37.4961H108.633ZM100.137 45.3242V38.7383H101.25V44.3457C102.217 44.334 103.277 44.2578 104.473 44.0234L104.59 44.9961C103.148 45.2539 101.947 45.3301 100.816 45.3242H100.137ZM118.969 37.5078V43.8359H117.914V41.0938H116.578V43.4609H115.547V37.6953H116.578V40.1797H117.914V37.5078H118.969ZM110.508 42.957V38.3281H111.621V42.0312C112.676 42.0195 113.684 41.9492 114.867 41.7148L114.973 42.6289C113.607 42.8984 112.465 42.957 111.199 42.957H110.508ZM111.902 45.9805C111.891 44.7266 113.268 43.9766 115.453 43.9766C117.633 43.9766 119.021 44.7266 119.027 45.9805C119.021 47.2285 117.633 47.9785 115.453 47.9727C113.268 47.9785 111.891 47.2285 111.902 45.9805ZM113.004 45.9805C112.992 46.6895 113.93 47.0996 115.453 47.0938C116.977 47.0996 117.908 46.6895 117.914 45.9805C117.908 45.2656 116.977 44.8496 115.453 44.8438C113.93 44.8496 112.992 45.2656 113.004 45.9805ZM124.055 39.4297C124.049 40.7656 124.98 41.9844 126.574 42.4883L126.047 43.3555C124.852 42.9746 123.979 42.1836 123.516 41.1875C123.059 42.3359 122.139 43.2441 120.879 43.6836L120.305 42.793C121.945 42.2539 122.936 40.9004 122.941 39.4414V39.1484H120.633V38.2461H126.316V39.1484H124.055V39.4297ZM121.723 46.0039C121.723 44.7734 123.064 44.0527 125.25 44.0586C127.412 44.0527 128.73 44.7734 128.73 46.0039C128.73 47.252 127.412 47.9785 125.25 47.9727C123.064 47.9785 121.723 47.252 121.723 46.0039ZM122.836 46.0039C122.83 46.707 123.732 47.0996 125.25 47.0938C126.756 47.0996 127.646 46.707 127.641 46.0039C127.646 45.3184 126.756 44.9316 125.25 44.9375C123.732 44.9316 122.83 45.3184 122.836 46.0039ZM127.523 43.8008V37.4961H128.637V40.0977H130.16V41.0117H128.637V43.8008H127.523ZM139.254 38.5039V39.5352C139.248 40.8301 139.248 42.2832 138.855 44.4336L137.73 44.3164C138.135 42.2832 138.135 40.7949 138.141 39.5352V39.4062H131.766V38.5039H139.254ZM130.758 46.5781V45.6523H134.402V41.9492H135.504V45.6523H140.332V46.5781H130.758Z" fill="#CCCFD7"/>
<g clip-path="url(#clip1_213_3139)">
<path fill-rule="evenodd" clip-rule="evenodd" d="M197.387 13.0882C197.799 13.294 197.966 13.7945 197.76 14.2062L196.204 17.3187H204.796L203.239 14.2062C203.033 13.7945 203.2 13.294 203.612 13.0882C204.024 12.8823 204.524 13.0492 204.73 13.4608L206.659 17.3187H209.249C209.71 17.3187 210.083 17.6918 210.083 18.152V19.9702C210.083 20.4305 209.71 20.8036 209.249 20.8036H207.875L207.274 29.4489C207.214 30.3225 206.487 31.0001 205.612 31.0001H195.388C194.513 31.0001 193.786 30.3225 193.726 29.4489L193.125 20.8036H191.749C191.289 20.8036 190.916 20.4305 190.916 19.9702V18.152C190.916 17.6918 191.289 17.3187 191.749 17.3187H194.34L196.269 13.4608C196.475 13.0492 196.976 12.8823 197.387 13.0882ZM196.143 22.8713C196.143 22.3902 196.533 22.0001 197.014 22.0001C197.495 22.0001 197.885 22.3902 197.885 22.8713V26.3562C197.885 26.8373 197.495 27.2274 197.014 27.2274C196.533 27.2274 196.143 26.8373 196.143 26.3562V22.8713ZM200.499 22.0001C200.018 22.0001 199.627 22.3902 199.627 22.8713V26.3562C199.627 26.8373 200.018 27.2274 200.499 27.2274C200.98 27.2274 201.37 26.8373 201.37 26.3562V22.8713C201.37 22.3902 200.98 22.0001 200.499 22.0001ZM203.112 22.8713C203.112 22.3902 203.502 22.0001 203.984 22.0001C204.465 22.0001 204.855 22.3902 204.855 22.8713V26.3562C204.855 26.8373 204.465 27.2274 203.984 27.2274C203.502 27.2274 203.112 26.8373 203.112 26.3562V22.8713Z" fill="#CCCFD7"/>
</g>
<path d="M200.324 41.6211V42.5352H198.695V47.9844H197.582V37.4961H198.695V41.6211H200.324ZM190.914 45.3477V38.5156H192.016V44.4219C193.48 44.416 195.01 44.293 196.68 43.9531L196.809 44.8906C195.01 45.248 193.357 45.3535 191.781 45.3477H190.914ZM209.371 40.2734V41.1641H202.164V37.6836H203.266V40.2734H209.371ZM200.887 43.0859V42.1836H210.473V43.0859H206.195V44.2695H209.266V47.8555H202.105V44.2695H205.105V43.0859H200.887ZM203.195 46.9648H208.188V45.1367H203.195V46.9648Z" fill="#CCCFD7"/>
<g clip-path="url(#clip2_213_3139)">
<path fill-rule="evenodd" clip-rule="evenodd" d="M290.5 22C290.5 27.5228 286.023 32 280.5 32C274.977 32 270.5 27.5228 270.5 22C270.5 16.4772 274.977 12 280.5 12C286.023 12 290.5 16.4772 290.5 22ZM283.279 19.2208C283.279 20.7557 282.035 22 280.5 22C278.965 22 277.721 20.7557 277.721 19.2208C277.721 17.6859 278.965 16.4416 280.5 16.4416C282.035 16.4416 283.279 17.6859 283.279 19.2208ZM275.942 26.7291C276.332 24.5666 278.224 22.9264 280.5 22.9264C282.775 22.9264 284.667 24.5666 285.058 26.7291C285.139 27.182 284.758 27.5584 284.298 27.5584H276.701C276.241 27.5584 275.86 27.182 275.942 26.7291Z" fill="#CCCFD7"/>
</g>
<path d="M272.953 38.5156H274.523L277.207 45.0898H277.312L279.996 38.5156H281.566V47H280.336V40.8711H280.254L277.77 46.9883H276.75L274.254 40.8594H274.184V47H272.953V38.5156ZM283.969 49.3906C283.711 49.3848 283.459 49.3789 283.301 49.3555V48.3125C283.441 48.3242 283.688 48.3301 283.863 48.3359C284.25 48.3301 284.572 48.3066 284.871 47.5039L285.023 47.082L282.691 40.6367H284.027L285.633 45.5703H285.703L287.309 40.6367H288.656L286.031 47.8438C285.662 48.8516 285.018 49.3848 283.969 49.3906Z" fill="#CCCFD7"/>
<defs>
<clipPath id="clip0_213_3139">
<rect width="20" height="20" fill="white" transform="translate(110 12)"/>
</clipPath>
<clipPath id="clip1_213_3139">
<rect width="20" height="20" fill="white" transform="translate(190.5 12)"/>
</clipPath>
<clipPath id="clip2_213_3139">
<rect width="20" height="20" fill="white" transform="translate(270.5 12)"/>
</clipPath>
</defs>
</svg>
