<svg width="415" height="448" viewBox="0 0 415 448" fill="none" xmlns="http://www.w3.org/2000/svg">
<rect x="0.5" y="1" width="414" height="446" rx="4.5" stroke="#9747FF" stroke-dasharray="10 5"/>
<path fill-rule="evenodd" clip-rule="evenodd" d="M54.6446 255.918C55.0351 256.308 55.0351 256.942 54.6446 257.332L47.4767 264.5L54.6446 271.668C55.0351 272.058 55.0351 272.692 54.6446 273.082C54.2541 273.473 53.6209 273.473 53.2304 273.082L44.6483 264.5L53.2304 255.918C53.6209 255.527 54.2541 255.527 54.6446 255.918Z" fill="#363A45"/>
<path d="M178.006 257.1V273.12H175.846V257.1H178.006ZM163.822 267.612H165.154V260.736H164.146V258.936H171.454V260.736H170.446V267.396C170.896 267.36 171.328 267.306 171.742 267.252L171.886 268.872C169.348 269.394 166.09 269.466 164.074 269.448L163.822 267.612ZM167.17 267.576C167.566 267.576 167.98 267.558 168.394 267.54V260.736H167.17V267.576ZM171.094 264.948V262.932H172.642V257.424H174.766V272.364H172.642V264.948H171.094ZM192.951 257.1V273.156H190.683V257.1H192.951ZM180.027 263.94C180.027 260.448 181.827 258.252 184.275 258.252C186.687 258.252 188.469 260.448 188.487 263.94C188.469 267.45 186.687 269.664 184.275 269.664C181.827 269.664 180.027 267.45 180.027 263.94ZM182.187 263.94C182.187 266.334 183.033 267.612 184.275 267.612C185.481 267.612 186.309 266.334 186.327 263.94C186.309 261.564 185.481 260.268 184.275 260.268C183.033 260.268 182.187 261.564 182.187 263.94ZM201.307 261.492C201.325 264.066 202.657 266.838 205.339 267.936L204.115 269.7C202.243 268.908 200.929 267.306 200.209 265.38C199.489 267.486 198.157 269.232 196.267 270.096L195.007 268.332C197.653 267.162 199.021 264.192 199.039 261.492V260.484H195.619V258.648H204.655V260.484H201.307V261.492ZM206.239 273.12V257.1H208.507V273.12H206.239ZM228.213 257.1V273.156H225.945V257.1H228.213ZM215.289 263.94C215.289 260.448 217.089 258.252 219.537 258.252C221.949 258.252 223.731 260.448 223.749 263.94C223.731 267.45 221.949 269.664 219.537 269.664C217.089 269.664 215.289 267.45 215.289 263.94ZM217.449 263.94C217.449 266.334 218.295 267.612 219.537 267.612C220.743 267.612 221.571 266.334 221.589 263.94C221.571 261.564 220.743 260.268 219.537 260.268C218.295 260.268 217.449 261.564 217.449 263.94ZM244.993 265.2V266.964H230.377V265.2H244.993ZM232.177 264.336V260.088H240.997V259.152H232.177V257.424H243.229V261.672H234.409V262.608H243.517V264.336H232.177ZM232.249 272.94V267.936H243.301V272.94H232.249ZM234.445 271.14H241.069V269.736H234.445V271.14Z" fill="#363A45"/>
<path fill-rule="evenodd" clip-rule="evenodd" d="M362.226 254.234C361.303 254.234 360.556 254.981 360.556 255.904V256.403C360.556 257.111 360.1 257.726 359.479 258.066C359.381 258.12 359.285 258.175 359.19 258.233C358.585 258.602 357.824 258.69 357.211 258.335L356.778 258.085C355.98 257.624 354.958 257.897 354.497 258.696L353.722 260.037C353.261 260.836 353.534 261.857 354.333 262.318L354.768 262.57C355.38 262.923 355.685 263.624 355.669 264.331C355.668 264.387 355.667 264.443 355.667 264.5C355.667 264.556 355.668 264.613 355.669 264.669C355.685 265.376 355.38 266.077 354.768 266.43L354.333 266.682C353.535 267.143 353.261 268.165 353.722 268.963L354.497 270.304C354.958 271.103 355.98 271.376 356.778 270.915L357.211 270.665C357.824 270.31 358.585 270.398 359.19 270.767C359.285 270.824 359.381 270.88 359.479 270.934C360.1 271.274 360.556 271.889 360.556 272.597V273.096C360.556 274.019 361.303 274.766 362.226 274.766H363.774C364.697 274.766 365.444 274.019 365.444 273.096V272.597C365.444 271.889 365.901 271.274 366.521 270.934C366.619 270.88 366.715 270.824 366.81 270.767C367.415 270.398 368.176 270.31 368.789 270.665L369.222 270.915C370.02 271.376 371.042 271.103 371.503 270.304L372.278 268.963C372.739 268.164 372.466 267.143 371.667 266.682L371.232 266.43C370.62 266.077 370.315 265.376 370.331 264.669C370.332 264.613 370.333 264.556 370.333 264.5C370.333 264.443 370.332 264.387 370.331 264.331C370.315 263.624 370.62 262.923 371.232 262.569L371.667 262.318C372.466 261.857 372.739 260.835 372.278 260.037L371.503 258.696C371.042 257.897 370.02 257.624 369.222 258.085L368.789 258.335C368.176 258.689 367.415 258.602 366.81 258.233C366.715 258.175 366.619 258.12 366.521 258.066C365.901 257.726 365.444 257.111 365.444 256.403V255.904C365.444 254.981 364.697 254.234 363.774 254.234H362.226ZM363 267.433C364.62 267.433 365.933 266.12 365.933 264.5C365.933 262.88 364.62 261.567 363 261.567C361.38 261.567 360.067 262.88 360.067 264.5C360.067 266.12 361.38 267.433 363 267.433Z" fill="#363A45"/>
<path fill-rule="evenodd" clip-rule="evenodd" d="M54.6446 325.918C55.0351 326.308 55.0351 326.942 54.6446 327.332L47.4767 334.5L54.6446 341.668C55.0351 342.058 55.0351 342.692 54.6446 343.082C54.2541 343.473 53.6209 343.473 53.2304 343.082L44.6483 334.5L53.2304 325.918C53.6209 325.527 54.2541 325.527 54.6446 325.918Z" fill="#363A45"/>
<path d="M178.006 327.1V343.12H175.846V327.1H178.006ZM163.822 337.612H165.154V330.736H164.146V328.936H171.454V330.736H170.446V337.396C170.896 337.36 171.328 337.306 171.742 337.252L171.886 338.872C169.348 339.394 166.09 339.466 164.074 339.448L163.822 337.612ZM167.17 337.576C167.566 337.576 167.98 337.558 168.394 337.54V330.736H167.17V337.576ZM171.094 334.948V332.932H172.642V327.424H174.766V342.364H172.642V334.948H171.094ZM192.951 327.1V343.156H190.683V327.1H192.951ZM180.027 333.94C180.027 330.448 181.827 328.252 184.275 328.252C186.687 328.252 188.469 330.448 188.487 333.94C188.469 337.45 186.687 339.664 184.275 339.664C181.827 339.664 180.027 337.45 180.027 333.94ZM182.187 333.94C182.187 336.334 183.033 337.612 184.275 337.612C185.481 337.612 186.309 336.334 186.327 333.94C186.309 331.564 185.481 330.268 184.275 330.268C183.033 330.268 182.187 331.564 182.187 333.94ZM201.307 331.492C201.325 334.066 202.657 336.838 205.339 337.936L204.115 339.7C202.243 338.908 200.929 337.306 200.209 335.38C199.489 337.486 198.157 339.232 196.267 340.096L195.007 338.332C197.653 337.162 199.021 334.192 199.039 331.492V330.484H195.619V328.648H204.655V330.484H201.307V331.492ZM206.239 343.12V327.1H208.507V343.12H206.239ZM228.213 327.1V343.156H225.945V327.1H228.213ZM215.289 333.94C215.289 330.448 217.089 328.252 219.537 328.252C221.949 328.252 223.731 330.448 223.749 333.94C223.731 337.45 221.949 339.664 219.537 339.664C217.089 339.664 215.289 337.45 215.289 333.94ZM217.449 333.94C217.449 336.334 218.295 337.612 219.537 337.612C220.743 337.612 221.571 336.334 221.589 333.94C221.571 331.564 220.743 330.268 219.537 330.268C218.295 330.268 217.449 331.564 217.449 333.94ZM244.993 335.2V336.964H230.377V335.2H244.993ZM232.177 334.336V330.088H240.997V329.152H232.177V327.424H243.229V331.672H234.409V332.608H243.517V334.336H232.177ZM232.249 342.94V337.936H243.301V342.94H232.249ZM234.445 341.14H241.069V339.736H234.445V341.14Z" fill="#363A45"/>
<path fill-rule="evenodd" clip-rule="evenodd" d="M362.226 324.234C361.303 324.234 360.556 324.981 360.556 325.904V326.403C360.556 327.111 360.1 327.726 359.479 328.066C359.381 328.12 359.285 328.175 359.19 328.233C358.585 328.602 357.824 328.69 357.211 328.335L356.778 328.085C355.98 327.624 354.958 327.897 354.497 328.696L353.722 330.037C353.261 330.836 353.534 331.857 354.333 332.318L354.768 332.57C355.38 332.923 355.685 333.624 355.669 334.331C355.668 334.387 355.667 334.443 355.667 334.5C355.667 334.556 355.668 334.613 355.669 334.669C355.685 335.376 355.38 336.077 354.768 336.43L354.333 336.682C353.535 337.143 353.261 338.165 353.722 338.963L354.497 340.304C354.958 341.103 355.98 341.376 356.778 340.915L357.211 340.665C357.824 340.31 358.585 340.398 359.19 340.767C359.285 340.824 359.381 340.88 359.479 340.934C360.1 341.274 360.556 341.889 360.556 342.597V343.096C360.556 344.019 361.303 344.766 362.226 344.766H363.774C364.697 344.766 365.444 344.019 365.444 343.096V342.597C365.444 341.889 365.901 341.274 366.521 340.934C366.619 340.88 366.715 340.824 366.81 340.767C367.415 340.398 368.176 340.31 368.789 340.665L369.222 340.915C370.02 341.376 371.042 341.103 371.503 340.304L372.278 338.963C372.739 338.164 372.466 337.143 371.667 336.682L371.232 336.43C370.62 336.077 370.315 335.376 370.331 334.669C370.332 334.613 370.333 334.556 370.333 334.5C370.333 334.443 370.332 334.387 370.331 334.331C370.315 333.624 370.62 332.923 371.232 332.569L371.667 332.318C372.466 331.857 372.739 330.835 372.278 330.037L371.503 328.696C371.042 327.897 370.02 327.624 369.222 328.085L368.789 328.335C368.176 328.689 367.415 328.602 366.81 328.233C366.715 328.175 366.619 328.12 366.521 328.066C365.901 327.726 365.444 327.111 365.444 326.403V325.904C365.444 324.981 364.697 324.234 363.774 324.234H362.226ZM363 337.433C364.62 337.433 365.933 336.12 365.933 334.5C365.933 332.88 364.62 331.567 363 331.567C361.38 331.567 360.067 332.88 360.067 334.5C360.067 336.12 361.38 337.433 363 337.433Z" fill="#363A45"/>
<path fill-rule="evenodd" clip-rule="evenodd" d="M326.226 324.234C325.303 324.234 324.556 324.981 324.556 325.904V326.403C324.556 327.111 324.1 327.726 323.479 328.066C323.381 328.12 323.285 328.175 323.19 328.233C322.585 328.602 321.824 328.69 321.211 328.335L320.778 328.085C319.98 327.624 318.958 327.897 318.497 328.696L317.722 330.037C317.261 330.836 317.534 331.857 318.333 332.318L318.768 332.57C319.38 332.923 319.685 333.624 319.669 334.331C319.668 334.387 319.667 334.443 319.667 334.5C319.667 334.556 319.668 334.613 319.669 334.669C319.685 335.376 319.38 336.077 318.768 336.43L318.333 336.682C317.535 337.143 317.261 338.165 317.722 338.963L318.497 340.304C318.958 341.103 319.98 341.376 320.778 340.915L321.211 340.665C321.824 340.31 322.585 340.398 323.19 340.767C323.285 340.824 323.381 340.88 323.479 340.934C324.1 341.274 324.556 341.889 324.556 342.597V343.096C324.556 344.019 325.303 344.766 326.226 344.766H327.774C328.697 344.766 329.444 344.019 329.444 343.096V342.597C329.444 341.889 329.901 341.274 330.521 340.934C330.619 340.88 330.715 340.824 330.81 340.767C331.415 340.398 332.176 340.31 332.789 340.665L333.222 340.915C334.02 341.376 335.042 341.103 335.503 340.304L336.278 338.963C336.739 338.164 336.466 337.143 335.667 336.682L335.232 336.43C334.62 336.077 334.315 335.376 334.331 334.669C334.332 334.613 334.333 334.556 334.333 334.5C334.333 334.443 334.332 334.387 334.331 334.331C334.315 333.624 334.62 332.923 335.232 332.569L335.667 332.318C336.466 331.857 336.739 330.835 336.278 330.037L335.503 328.696C335.042 327.897 334.02 327.624 333.222 328.085L332.789 328.335C332.176 328.689 331.415 328.602 330.81 328.233C330.715 328.175 330.619 328.12 330.521 328.066C329.901 327.726 329.444 327.111 329.444 326.403V325.904C329.444 324.981 328.697 324.234 327.774 324.234H326.226ZM327 337.433C328.62 337.433 329.933 336.12 329.933 334.5C329.933 332.88 328.62 331.567 327 331.567C325.38 331.567 324.067 332.88 324.067 334.5C324.067 336.12 325.38 337.433 327 337.433Z" fill="#363A45"/>
<path fill-rule="evenodd" clip-rule="evenodd" d="M54.6446 389.918C55.0351 390.308 55.0351 390.942 54.6446 391.332L47.4767 398.5L54.6446 405.668C55.0351 406.058 55.0351 406.692 54.6446 407.082C54.2541 407.473 53.6209 407.473 53.2304 407.082L44.6483 398.5L53.2304 389.918C53.6209 389.527 54.2541 389.527 54.6446 389.918Z" fill="#363A45"/>
<path d="M178.006 391.1V407.12H175.846V391.1H178.006ZM163.822 401.612H165.154V394.736H164.146V392.936H171.454V394.736H170.446V401.396C170.896 401.36 171.328 401.306 171.742 401.252L171.886 402.872C169.348 403.394 166.09 403.466 164.074 403.448L163.822 401.612ZM167.17 401.576C167.566 401.576 167.98 401.558 168.394 401.54V394.736H167.17V401.576ZM171.094 398.948V396.932H172.642V391.424H174.766V406.364H172.642V398.948H171.094ZM192.951 391.1V407.156H190.683V391.1H192.951ZM180.027 397.94C180.027 394.448 181.827 392.252 184.275 392.252C186.687 392.252 188.469 394.448 188.487 397.94C188.469 401.45 186.687 403.664 184.275 403.664C181.827 403.664 180.027 401.45 180.027 397.94ZM182.187 397.94C182.187 400.334 183.033 401.612 184.275 401.612C185.481 401.612 186.309 400.334 186.327 397.94C186.309 395.564 185.481 394.268 184.275 394.268C183.033 394.268 182.187 395.564 182.187 397.94ZM201.307 395.492C201.325 398.066 202.657 400.838 205.339 401.936L204.115 403.7C202.243 402.908 200.929 401.306 200.209 399.38C199.489 401.486 198.157 403.232 196.267 404.096L195.007 402.332C197.653 401.162 199.021 398.192 199.039 395.492V394.484H195.619V392.648H204.655V394.484H201.307V395.492ZM206.239 407.12V391.1H208.507V407.12H206.239ZM228.213 391.1V407.156H225.945V391.1H228.213ZM215.289 397.94C215.289 394.448 217.089 392.252 219.537 392.252C221.949 392.252 223.731 394.448 223.749 397.94C223.731 401.45 221.949 403.664 219.537 403.664C217.089 403.664 215.289 401.45 215.289 397.94ZM217.449 397.94C217.449 400.334 218.295 401.612 219.537 401.612C220.743 401.612 221.571 400.334 221.589 397.94C221.571 395.564 220.743 394.268 219.537 394.268C218.295 394.268 217.449 395.564 217.449 397.94ZM244.993 399.2V400.964H230.377V399.2H244.993ZM232.177 398.336V394.088H240.997V393.152H232.177V391.424H243.229V395.672H234.409V396.608H243.517V398.336H232.177ZM232.249 406.94V401.936H243.301V406.94H232.249ZM234.445 405.14H241.069V403.736H234.445V405.14Z" fill="#363A45"/>
<path fill-rule="evenodd" clip-rule="evenodd" d="M54.6446 105.918C55.0351 106.308 55.0351 106.942 54.6446 107.332L47.4767 114.5L54.6446 121.668C55.0351 122.058 55.0351 122.692 54.6446 123.082C54.2541 123.473 53.6209 123.473 53.2304 123.082L44.6483 114.5L53.2304 105.918C53.6209 105.527 54.2541 105.527 54.6446 105.918Z" fill="#363A45"/>
<path fill-rule="evenodd" clip-rule="evenodd" d="M362.226 104.234C361.303 104.234 360.556 104.981 360.556 105.904V106.403C360.556 107.111 360.1 107.726 359.479 108.066C359.381 108.12 359.285 108.175 359.19 108.233C358.585 108.602 357.824 108.69 357.211 108.335L356.778 108.085C355.98 107.624 354.958 107.897 354.497 108.696L353.722 110.037C353.261 110.836 353.534 111.857 354.333 112.318L354.768 112.57C355.38 112.923 355.685 113.624 355.669 114.331C355.668 114.387 355.667 114.443 355.667 114.5C355.667 114.556 355.668 114.613 355.669 114.669C355.685 115.376 355.38 116.077 354.768 116.43L354.333 116.682C353.535 117.143 353.261 118.165 353.722 118.963L354.497 120.304C354.958 121.103 355.98 121.376 356.778 120.915L357.211 120.665C357.824 120.31 358.585 120.398 359.19 120.767C359.285 120.824 359.381 120.88 359.479 120.934C360.1 121.274 360.556 121.889 360.556 122.597V123.096C360.556 124.019 361.303 124.766 362.226 124.766H363.774C364.697 124.766 365.444 124.019 365.444 123.096V122.597C365.444 121.889 365.901 121.274 366.521 120.934C366.619 120.88 366.715 120.824 366.81 120.767C367.415 120.398 368.176 120.31 368.789 120.665L369.222 120.915C370.02 121.376 371.042 121.103 371.503 120.304L372.278 118.963C372.739 118.164 372.466 117.143 371.667 116.682L371.232 116.43C370.62 116.077 370.315 115.376 370.331 114.669C370.332 114.613 370.333 114.556 370.333 114.5C370.333 114.443 370.332 114.387 370.331 114.331C370.315 113.624 370.62 112.923 371.232 112.569L371.667 112.318C372.466 111.857 372.739 110.835 372.278 110.037L371.503 108.696C371.042 107.897 370.02 107.624 369.222 108.085L368.789 108.335C368.176 108.689 367.415 108.602 366.81 108.233C366.715 108.175 366.619 108.12 366.521 108.066C365.901 107.726 365.444 107.111 365.444 106.403V105.904C365.444 104.981 364.697 104.234 363.774 104.234H362.226ZM363 117.433C364.62 117.433 365.933 116.12 365.933 114.5C365.933 112.88 364.62 111.567 363 111.567C361.38 111.567 360.067 112.88 360.067 114.5C360.067 116.12 361.38 117.433 363 117.433Z" fill="#363A45"/>
<path fill-rule="evenodd" clip-rule="evenodd" d="M54.6446 175.918C55.0351 176.308 55.0351 176.942 54.6446 177.332L47.4767 184.5L54.6446 191.668C55.0351 192.058 55.0351 192.692 54.6446 193.082C54.2541 193.473 53.6209 193.473 53.2304 193.082L44.6483 184.5L53.2304 175.918C53.6209 175.527 54.2541 175.527 54.6446 175.918Z" fill="#363A45"/>
<path fill-rule="evenodd" clip-rule="evenodd" d="M362.226 174.234C361.303 174.234 360.556 174.981 360.556 175.904V176.403C360.556 177.111 360.1 177.726 359.479 178.066C359.381 178.12 359.285 178.175 359.19 178.233C358.585 178.602 357.824 178.69 357.211 178.335L356.778 178.085C355.98 177.624 354.958 177.897 354.497 178.696L353.722 180.037C353.261 180.836 353.534 181.857 354.333 182.318L354.768 182.57C355.38 182.923 355.685 183.624 355.669 184.331C355.668 184.387 355.667 184.443 355.667 184.5C355.667 184.556 355.668 184.613 355.669 184.669C355.685 185.376 355.38 186.077 354.768 186.43L354.333 186.682C353.535 187.143 353.261 188.165 353.722 188.963L354.497 190.304C354.958 191.103 355.98 191.376 356.778 190.915L357.211 190.665C357.824 190.31 358.585 190.398 359.19 190.767C359.285 190.824 359.381 190.88 359.479 190.934C360.1 191.274 360.556 191.889 360.556 192.597V193.096C360.556 194.019 361.303 194.766 362.226 194.766H363.774C364.697 194.766 365.444 194.019 365.444 193.096V192.597C365.444 191.889 365.901 191.274 366.521 190.934C366.619 190.88 366.715 190.824 366.81 190.767C367.415 190.398 368.176 190.31 368.789 190.665L369.222 190.915C370.02 191.376 371.042 191.103 371.503 190.304L372.278 188.963C372.739 188.164 372.466 187.143 371.667 186.682L371.232 186.43C370.62 186.077 370.315 185.376 370.331 184.669C370.332 184.613 370.333 184.556 370.333 184.5C370.333 184.443 370.332 184.387 370.331 184.331C370.315 183.624 370.62 182.923 371.232 182.569L371.667 182.318C372.466 181.857 372.739 180.835 372.278 180.037L371.503 178.696C371.042 177.897 370.02 177.624 369.222 178.085L368.789 178.335C368.176 178.689 367.415 178.602 366.81 178.233C366.715 178.175 366.619 178.12 366.521 178.066C365.901 177.726 365.444 177.111 365.444 176.403V175.904C365.444 174.981 364.697 174.234 363.774 174.234H362.226ZM363 187.433C364.62 187.433 365.933 186.12 365.933 184.5C365.933 182.88 364.62 181.567 363 181.567C361.38 181.567 360.067 182.88 360.067 184.5C360.067 186.12 361.38 187.433 363 187.433Z" fill="#363A45"/>
<path fill-rule="evenodd" clip-rule="evenodd" d="M326.226 174.234C325.303 174.234 324.556 174.981 324.556 175.904V176.403C324.556 177.111 324.1 177.726 323.479 178.066C323.381 178.12 323.285 178.175 323.19 178.233C322.585 178.602 321.824 178.69 321.211 178.335L320.778 178.085C319.98 177.624 318.958 177.897 318.497 178.696L317.722 180.037C317.261 180.836 317.534 181.857 318.333 182.318L318.768 182.57C319.38 182.923 319.685 183.624 319.669 184.331C319.668 184.387 319.667 184.443 319.667 184.5C319.667 184.556 319.668 184.613 319.669 184.669C319.685 185.376 319.38 186.077 318.768 186.43L318.333 186.682C317.535 187.143 317.261 188.165 317.722 188.963L318.497 190.304C318.958 191.103 319.98 191.376 320.778 190.915L321.211 190.665C321.824 190.31 322.585 190.398 323.19 190.767C323.285 190.824 323.381 190.88 323.479 190.934C324.1 191.274 324.556 191.889 324.556 192.597V193.096C324.556 194.019 325.303 194.766 326.226 194.766H327.774C328.697 194.766 329.444 194.019 329.444 193.096V192.597C329.444 191.889 329.901 191.274 330.521 190.934C330.619 190.88 330.715 190.824 330.81 190.767C331.415 190.398 332.176 190.31 332.789 190.665L333.222 190.915C334.02 191.376 335.042 191.103 335.503 190.304L336.278 188.963C336.739 188.164 336.466 187.143 335.667 186.682L335.232 186.43C334.62 186.077 334.315 185.376 334.331 184.669C334.332 184.613 334.333 184.556 334.333 184.5C334.333 184.443 334.332 184.387 334.331 184.331C334.315 183.624 334.62 182.923 335.232 182.569L335.667 182.318C336.466 181.857 336.739 180.835 336.278 180.037L335.503 178.696C335.042 177.897 334.02 177.624 333.222 178.085L332.789 178.335C332.176 178.689 331.415 178.602 330.81 178.233C330.715 178.175 330.619 178.12 330.521 178.066C329.901 177.726 329.444 177.111 329.444 176.403V175.904C329.444 174.981 328.697 174.234 327.774 174.234H326.226ZM327 187.433C328.62 187.433 329.933 186.12 329.933 184.5C329.933 182.88 328.62 181.567 327 181.567C325.38 181.567 324.067 182.88 324.067 184.5C324.067 186.12 325.38 187.433 327 187.433Z" fill="#363A45"/>
<path fill-rule="evenodd" clip-rule="evenodd" d="M54.6446 35.9179C55.0351 36.3084 55.0351 36.9416 54.6446 37.3321L47.4767 44.5L54.6446 51.6679C55.0351 52.0584 55.0351 52.6916 54.6446 53.0821C54.2541 53.4726 53.6209 53.4726 53.2304 53.0821L44.6483 44.5L53.2304 35.9179C53.6209 35.5274 54.2541 35.5274 54.6446 35.9179Z" fill="#363A45"/>
</svg>
