<svg width="97" height="72" viewBox="0 0 97 72" fill="none" xmlns="http://www.w3.org/2000/svg">
<g clip-path="url(#clip0_201_3438)">
<path d="M46.3395 32.7917C46.3395 46.8356 45.5204 59.6089 68.3201 58.2204C81.3982 58.2204 92 46.8356 92 32.7917C92 18.7478 81.3824 8.05233 68.3201 7.36293C41.9459 5.97096 46.3395 18.7478 46.3395 32.7917Z" fill="#3CAA8D"/>
<path d="M75 44.7742C76.5738 45.7505 78 46.7742 79.2047 47.9648" stroke="#0C5E5A" stroke-linecap="round" stroke-linejoin="round"/>
<path d="M51 32.2588C50.198 46.2696 47.4982 58.2204 26.2228 58.2204C12.1789 58.2204 0.794067 46.8356 0.794067 32.7917C0.794067 18.7477 12.1789 7.36292 26.2228 7.36292C49.8268 7.36292 49.5 18.7588 51 32.2588Z" fill="#52C5A6"/>
<path d="M28.6519 24.2189L28.438 25.4416" stroke="#0C5E5A" stroke-width="0.972973" stroke-linecap="round"/>
<path d="M35.79 23.2859L36.1307 24.8302" stroke="#0C5E5A" stroke-width="0.972973" stroke-linecap="round"/>
<path d="M30 28.7426C30 28.7426 30.3873 30.4197 33.2112 30.0449C36.0351 29.67 37.8849 27.849 37.8849 27.849" stroke="#0C5E5A" stroke-width="0.972973" stroke-linecap="round"/>
<path d="M26.7703 19.9137C26.1629 21.5789 26.14 23.9877 31.1586 23.6911C34.5202 23.4924 37.0697 22.5443 38.7442 21.1688" stroke="#0C5E5A" stroke-linecap="round" stroke-linejoin="round"/>
<path d="M40.1159 24.2588C38.8425 25.4995 36.5896 28.9017 37.765 32.5846" stroke="#0C5E5A" stroke-linecap="round" stroke-linejoin="round"/>
<path d="M57.4168 19.6518C59.1481 18.9193 63.0994 18.2974 65.0538 21.6698" stroke="#0C5E5A" stroke-linecap="round" stroke-linejoin="round"/>
<path d="M63.7547 19.9587C64.9659 19.4572 67.7545 18.9649 69.2189 21.0077" stroke="#0C5E5A" stroke-linecap="round" stroke-linejoin="round"/>
<path d="M62.4973 23.6909L62.8599 24.8781" stroke="#0C5E5A" stroke-width="0.972973" stroke-linecap="round"/>
<path d="M68.6835 23.6845L68.4573 24.6886" stroke="#0C5E5A" stroke-width="0.972973" stroke-linecap="round"/>
<path d="M70.066 27.4222C70.066 27.4222 69.1511 29.6433 65.9126 29.6598C62.674 29.6763 61.1912 28.65 61.1912 28.65" stroke="#0C5E5A" stroke-width="0.972973" stroke-linecap="round"/>
<path d="M59.3922 25.2969C61.2748 27.0284 61.7344 29.4455 60.0791 31.9448" stroke="#0C5E5A" stroke-linecap="round" stroke-linejoin="round"/>
<path d="M49 19.2588C49.9123 21.7879 50.6927 25.3047 50.9092 28.5329C51.1315 31.8481 51.0883 36.6158 49.0859 44.2588" stroke="#0C5E5A" stroke-linecap="round" stroke-linejoin="round"/>
<rect x="22" y="39.2588" width="54.1667" height="7.58333" rx="2" fill="#FFE377"/>
<path d="M25.25 46.8421H72.9167L70.3888 65.034C70.2514 66.0227 69.406 66.7588 68.4078 66.7588H29.2868C28.2691 66.7588 27.4137 65.9946 27.2994 64.9833L25.25 46.8421Z" fill="#FFE377"/>
<path d="M27.4166 46.8295H70.75" stroke="#F1B00A" stroke-linecap="round"/>
<path d="M35 52.2588V60.9255" stroke="#F1B00A" stroke-linecap="round"/>
<path d="M42.5012 52.2588V60.9255" stroke="#F1B00A" stroke-linecap="round"/>
<path d="M49.5341 52.2588V60.9255" stroke="#F1B00A" stroke-linecap="round"/>
<path d="M56.5668 52.2588V60.9255" stroke="#F1B00A" stroke-linecap="round"/>
<path d="M63.5996 52.2588V60.9255" stroke="#F1B00A" stroke-linecap="round"/>
<path d="M42 35.2588L38 41.2588" stroke="#FFE377" stroke-linecap="round" stroke-linejoin="round"/>
<path d="M56 35.2588L60 41.2588" stroke="#FFE377" stroke-linecap="round" stroke-linejoin="round"/>
<path d="M18.4572 47.4374C15.6028 45.0682 17.8432 39.0121 17.7421 37.9239L8.44091 38.1899C6.2742 42.3716 5.28156 47.063 6.03401 50.4679C7.15552 55.5429 13.6333 58.8744 19.2926 61.5926C23.8825 63.7972 31.8611 64.1455 34.514 63.2142C37.5153 62.1605 37.9623 58.6324 36.4017 55.3876C35.5545 53.626 33.6369 53.4478 32.6046 52.6123C32.4516 52.4357 32.2825 52.2432 32.1113 52.0496C31.6539 51.3573 31.4536 50.5567 30.83 50.6187C24.7771 51.22 22.0253 50.3988 18.4572 47.4374Z" fill="#52C5A6"/>
<path d="M27.8887 53.209C29.4849 52.9991 30.8349 52.9243 32.2938 53.072M9.49999 37.7588C7.5573 40.6728 6.44428 43.6583 6.02026 46.3006M32.2938 53.072C34.0452 53.2493 35.5503 53.6175 36.4017 55.3878C37.9622 58.6326 36.9407 61.8171 34.1007 63.2503C32.8837 63.8645 30.8723 64.1283 28.4136 63.9696M32.2938 53.072C32.6144 52.169 32.3087 50.4495 29.9226 50.4702C27.6273 50.7261 25.6319 51.4329 23.3616 50.4453C22.528 50.0827 20.3257 48.9115 18.3494 47.3878M18.3494 47.3878C17.6695 46.885 15.6196 46.0646 12.8583 46.805M18.3494 47.3878C16.3531 45.4907 17 43.7588 19.4771 39.7588" stroke="#0C5E5A" stroke-linecap="round"/>
<path d="M36.8175 59.7167C35.6878 60.512 33.1909 61.2664 30.7538 60.6404" stroke="#0C5E5A" stroke-linecap="round"/>
<path d="M36.6017 56.9472C35.7215 57.4047 33.3583 57.9353 31.0667 57.217" stroke="#0C5E5A" stroke-linecap="round"/>
<path d="M68.2092 49.2527C74.2916 49.2961 82.4092 48.1546 81.4999 46.7742C80.5906 45.3939 76.4999 42.7742 76.4999 42.7742L80.5715 36.582L85.9999 38.7742L86.1139 38.8732C88.0103 40.5197 89.6526 41.9456 90.9999 43.7742C92.4434 45.7334 92.1966 48.708 91.9728 50.4803C91.3217 55.6368 85.6816 56.7773 80.2956 60.0033C75.9272 62.6197 68.4234 62.8171 65.6963 62.1331C62.6109 61.3593 61.8422 57.887 63.0984 54.5127C63.7805 52.6808 65.6736 52.3275 66.6249 51.4008C66.7611 51.2109 66.9118 51.0036 67.0645 50.7951C67.4565 50.0638 67.5825 49.2482 68.2092 49.2527Z" fill="#3CAA8D"/>
<path d="M71.3756 51.5622C69.767 51.4997 68.4158 51.5491 66.9766 51.83M79.6915 36.2743C84.1976 38.2322 87.203 40.2928 89.1544 42.2895M66.9766 51.83C65.2489 52.1672 63.7839 52.672 63.0985 54.5129C61.8422 57.8872 63.1516 60.9646 66.1112 62.1312C67.06 62.5052 68.2938 62.6968 69.7761 62.672M66.9766 51.83C66.5744 50.9603 66.7211 49.22 69.099 49.0216C71.4532 49.1575 77.0397 49.1225 81.4843 46.947C82.1496 46.6214 82.7434 46.2927 83.2509 45.9412" stroke="#0C5E5A" stroke-linecap="round"/>
<path d="M63.0815 58.8617C64.2794 59.5501 66.835 60.0721 69.2044 59.2252" stroke="#0C5E5A" stroke-linecap="round"/>
<path d="M63.0423 56.0842C63.9607 56.459 66.3627 56.7705 68.5787 55.845" stroke="#0C5E5A" stroke-linecap="round"/>
<path d="M41.0726 5.15465L43.308 7.12894" stroke="#0C5E5A" stroke-linecap="round"/>
<path d="M47.0268 2.29339L47.0226 6.13665" stroke="#0C5E5A" stroke-linecap="round"/>
<path d="M52.8018 5.24124L50.4818 7.04235" stroke="#0C5E5A" stroke-linecap="round"/>
</g>
<defs>
<clipPath id="clip0_201_3438">
<rect width="97" height="72" fill="white"/>
</clipPath>
</defs>
</svg>
