<svg width="22" height="22" viewBox="0 0 22 22" fill="none" xmlns="http://www.w3.org/2000/svg">
<path fill-rule="evenodd" clip-rule="evenodd" d="M7.57609 1.19659C8.0289 1.42299 8.21244 1.97361 7.98603 2.42642L6.27415 5.85019H15.7251L14.0132 2.42642C13.7868 1.97361 13.9704 1.42299 14.4232 1.19659C14.876 0.970178 15.4266 1.15372 15.653 1.60653L17.7749 5.85019H20.6243C21.1305 5.85019 21.5409 6.26059 21.5409 6.76685V8.76685C21.5409 9.27311 21.1305 9.68352 20.6243 9.68352H19.1122L18.4518 19.1934C18.3851 20.1543 17.5861 20.8997 16.6229 20.8997H5.37709C4.41386 20.8997 3.6149 20.1543 3.54817 19.1934L2.88776 9.68352H1.37428C0.868017 9.68352 0.457611 9.27311 0.457611 8.76685V6.76685C0.457611 6.26059 0.868017 5.85019 1.37428 5.85019H4.22442L6.34625 1.60653C6.57266 1.15372 7.12327 0.970178 7.57609 1.19659ZM6.20688 11.9581C6.20688 11.4288 6.63594 10.9997 7.16521 10.9997C7.69449 10.9997 8.12355 11.4288 8.12355 11.9581V15.7914C8.12355 16.3207 7.69449 16.7497 7.16521 16.7497C6.63594 16.7497 6.20688 16.3207 6.20688 15.7914V11.9581ZM10.9986 10.9997C10.4693 10.9997 10.0402 11.4288 10.0402 11.9581V15.7914C10.0402 16.3207 10.4693 16.7497 10.9986 16.7497C11.5278 16.7497 11.9569 16.3207 11.9569 15.7914V11.9581C11.9569 11.4288 11.5278 10.9997 10.9986 10.9997ZM13.8736 11.9581C13.8736 11.4288 14.3026 10.9997 14.8319 10.9997C15.3612 10.9997 15.7902 11.4288 15.7902 11.9581V15.7914C15.7902 16.3207 15.3612 16.7497 14.8319 16.7497C14.3026 16.7497 13.8736 16.3207 13.8736 15.7914V11.9581Z" fill="#9299AA"/>
</svg>
